<?xml version="1.0" encoding="utf-8" standalone="no"?>
<!DOCTYPE svg PUBLIC "-//W3C//DTD SVG 1.1//EN"
  "http://www.w3.org/Graphics/SVG/1.1/DTD/svg11.dtd">
<svg xmlns:xlink="http://www.w3.org/1999/xlink" width="504pt" height="360pt" viewBox="0 0 504 360" xmlns="http://www.w3.org/2000/svg" version="1.1">
 <metadata>
  <rdf:RDF xmlns:dc="http://purl.org/dc/elements/1.1/" xmlns:cc="http://creativecommons.org/ns#" xmlns:rdf="http://www.w3.org/1999/02/22-rdf-syntax-ns#">
   <cc:Work>
    <dc:type rdf:resource="http://purl.org/dc/dcmitype/StillImage"/>
    <dc:date>2022-09-08T15:55:10.351430</dc:date>
    <dc:format>image/svg+xml</dc:format>
    <dc:creator>
     <cc:Agent>
      <dc:title>Matplotlib v3.5.1, https://matplotlib.org/</dc:title>
     </cc:Agent>
    </dc:creator>
   </cc:Work>
  </rdf:RDF>
 </metadata>
 <defs>
  <style type="text/css">*{stroke-linejoin: round; stroke-linecap: butt}</style>
 </defs>
 <g id="figure_1">
  <g id="patch_1">
   <path d="M 0 360 
L 504 360 
L 504 0 
L 0 0 
L 0 360 
z
" style="fill: none"/>
  </g>
  <g id="axes_1">
   <g id="patch_2">
    <path d="M 63 315 
L 453.6 315 
L 453.6 43.2 
L 63 43.2 
z
" style="fill: #ffffff"/>
   </g>
   <g id="patch_3">
    <path d="M 80.754545 315 
L 89.977686 315 
L 89.977686 259.948968 
L 80.754545 259.948968 
z
" clip-path="url(#p837ffd69ce)" style="fill: #1f77b4"/>
   </g>
   <g id="patch_4">
    <path d="M 92.283471 315 
L 101.506612 315 
L 101.506612 276.651156 
L 92.283471 276.651156 
z
" clip-path="url(#p837ffd69ce)" style="fill: #1f77b4"/>
   </g>
   <g id="patch_5">
    <path d="M 103.812397 315 
L 113.035537 315 
L 113.035537 284.000046 
L 103.812397 284.000046 
z
" clip-path="url(#p837ffd69ce)" style="fill: #1f77b4"/>
   </g>
   <g id="patch_6">
    <path d="M 115.341322 315 
L 124.564463 315 
L 124.564463 291.474794 
L 115.341322 291.474794 
z
" clip-path="url(#p837ffd69ce)" style="fill: #1f77b4"/>
   </g>
   <g id="patch_7">
    <path d="M 126.870248 315 
L 136.093388 315 
L 136.093388 293.050654 
L 126.870248 293.050654 
z
" clip-path="url(#p837ffd69ce)" style="fill: #1f77b4"/>
   </g>
   <g id="patch_8">
    <path d="M 138.399174 315 
L 147.622314 315 
L 147.622314 301.02226 
L 138.399174 301.02226 
z
" clip-path="url(#p837ffd69ce)" style="fill: #1f77b4"/>
   </g>
   <g id="patch_9">
    <path d="M 149.928099 315 
L 159.15124 315 
L 159.15124 303.610455 
L 149.928099 303.610455 
z
" clip-path="url(#p837ffd69ce)" style="fill: #1f77b4"/>
   </g>
   <g id="patch_10">
    <path d="M 161.457025 315 
L 170.680165 315 
L 170.680165 304.684239 
L 161.457025 304.684239 
z
" clip-path="url(#p837ffd69ce)" style="fill: #1f77b4"/>
   </g>
   <g id="patch_11">
    <path d="M 172.98595 315 
L 182.209091 315 
L 182.209091 307.230174 
L 172.98595 307.230174 
z
" clip-path="url(#p837ffd69ce)" style="fill: #1f77b4"/>
   </g>
   <g id="patch_12">
    <path d="M 184.514876 315 
L 193.738017 315 
L 193.738017 310.140224 
L 184.514876 310.140224 
z
" clip-path="url(#p837ffd69ce)" style="fill: #1f77b4"/>
   </g>
   <g id="patch_13">
    <path d="M 196.043802 315 
L 205.266942 315 
L 205.266942 310.711211 
L 196.043802 310.711211 
z
" clip-path="url(#p837ffd69ce)" style="fill: #1f77b4"/>
   </g>
   <g id="patch_14">
    <path d="M 207.572727 315 
L 216.795868 315 
L 216.795868 310.970795 
L 207.572727 310.970795 
z
" clip-path="url(#p837ffd69ce)" style="fill: #1f77b4"/>
   </g>
   <g id="patch_15">
    <path d="M 219.101653 315 
L 228.324793 315 
L 228.324793 311.691812 
L 219.101653 311.691812 
z
" clip-path="url(#p837ffd69ce)" style="fill: #1f77b4"/>
   </g>
   <g id="patch_16">
    <path d="M 230.630579 315 
L 239.853719 315 
L 239.853719 312.699945 
L 230.630579 312.699945 
z
" clip-path="url(#p837ffd69ce)" style="fill: #1f77b4"/>
   </g>
   <g id="patch_17">
    <path d="M 242.159504 315 
L 251.382645 315 
L 251.382645 312.969639 
L 242.159504 312.969639 
z
" clip-path="url(#p837ffd69ce)" style="fill: #1f77b4"/>
   </g>
   <g id="patch_18">
    <path d="M 253.68843 315 
L 262.91157 315 
L 262.91157 313.0232 
L 253.68843 313.0232 
z
" clip-path="url(#p837ffd69ce)" style="fill: #1f77b4"/>
   </g>
   <g id="patch_19">
    <path d="M 265.217355 315 
L 274.440496 315 
L 274.440496 313.245833 
L 265.217355 313.245833 
z
" clip-path="url(#p837ffd69ce)" style="fill: #1f77b4"/>
   </g>
   <g id="patch_20">
    <path d="M 276.746281 315 
L 285.969421 315 
L 285.969421 313.279789 
L 276.746281 313.279789 
z
" clip-path="url(#p837ffd69ce)" style="fill: #1f77b4"/>
   </g>
   <g id="patch_21">
    <path d="M 288.275207 315 
L 297.498347 315 
L 297.498347 313.290415 
L 288.275207 313.290415 
z
" clip-path="url(#p837ffd69ce)" style="fill: #1f77b4"/>
   </g>
   <g id="patch_22">
    <path d="M 299.804132 315 
L 309.027273 315 
L 309.027273 313.311279 
L 299.804132 313.311279 
z
" clip-path="url(#p837ffd69ce)" style="fill: #1f77b4"/>
   </g>
   <g id="patch_23">
    <path d="M 311.333058 315 
L 320.556198 315 
L 320.556198 313.416711 
L 311.333058 313.416711 
z
" clip-path="url(#p837ffd69ce)" style="fill: #1f77b4"/>
   </g>
   <g id="patch_24">
    <path d="M 322.861983 315 
L 332.085124 315 
L 332.085124 313.416718 
L 322.861983 313.416718 
z
" clip-path="url(#p837ffd69ce)" style="fill: #1f77b4"/>
   </g>
   <g id="patch_25">
    <path d="M 334.390909 315 
L 343.61405 315 
L 343.61405 313.458615 
L 334.390909 313.458615 
z
" clip-path="url(#p837ffd69ce)" style="fill: #1f77b4"/>
   </g>
   <g id="patch_26">
    <path d="M 345.919835 315 
L 355.142975 315 
L 355.142975 313.471667 
L 345.919835 313.471667 
z
" clip-path="url(#p837ffd69ce)" style="fill: #1f77b4"/>
   </g>
   <g id="patch_27">
    <path d="M 357.44876 315 
L 366.671901 315 
L 366.671901 313.522136 
L 357.44876 313.522136 
z
" clip-path="url(#p837ffd69ce)" style="fill: #1f77b4"/>
   </g>
   <g id="patch_28">
    <path d="M 368.977686 315 
L 378.200826 315 
L 378.200826 313.552456 
L 368.977686 313.552456 
z
" clip-path="url(#p837ffd69ce)" style="fill: #1f77b4"/>
   </g>
   <g id="patch_29">
    <path d="M 380.506612 315 
L 389.729752 315 
L 389.729752 313.583657 
L 380.506612 313.583657 
z
" clip-path="url(#p837ffd69ce)" style="fill: #1f77b4"/>
   </g>
   <g id="patch_30">
    <path d="M 392.035537 315 
L 401.258678 315 
L 401.258678 313.640056 
L 392.035537 313.640056 
z
" clip-path="url(#p837ffd69ce)" style="fill: #1f77b4"/>
   </g>
   <g id="patch_31">
    <path d="M 403.564463 315 
L 412.787603 315 
L 412.787603 313.647151 
L 403.564463 313.647151 
z
" clip-path="url(#p837ffd69ce)" style="fill: #1f77b4"/>
   </g>
   <g id="patch_32">
    <path d="M 415.093388 315 
L 424.316529 315 
L 424.316529 313.711113 
L 415.093388 313.711113 
z
" clip-path="url(#p837ffd69ce)" style="fill: #1f77b4"/>
   </g>
   <g id="patch_33">
    <path d="M 426.622314 315 
L 435.845455 315 
L 435.845455 313.71569 
L 426.622314 313.71569 
z
" clip-path="url(#p837ffd69ce)" style="fill: #1f77b4"/>
   </g>
   <g id="PathCollection_1">
    <defs>
     <path id="me3ff4269a1" d="M 0 3 
C 0.795609 3 1.55874 2.683901 2.12132 2.12132 
C 2.683901 1.55874 3 0.795609 3 0 
C 3 -0.795609 2.683901 -1.55874 2.12132 -2.12132 
C 1.55874 -2.683901 0.795609 -3 0 -3 
C -0.795609 -3 -1.55874 -2.683901 -2.12132 -2.12132 
C -2.683901 -1.55874 -3 -0.795609 -3 0 
C -3 0.795609 -2.683901 1.55874 -2.12132 2.12132 
C -1.55874 2.683901 -0.795609 3 0 3 
z
" style="stroke: #ff0000"/>
    </defs>
    <g clip-path="url(#p837ffd69ce)">
     <use xlink:href="#me3ff4269a1" x="85.366116" y="259.948968" style="fill: #ff0000; stroke: #ff0000"/>
     <use xlink:href="#me3ff4269a1" x="96.895041" y="221.600124" style="fill: #ff0000; stroke: #ff0000"/>
     <use xlink:href="#me3ff4269a1" x="108.423967" y="190.60017" style="fill: #ff0000; stroke: #ff0000"/>
     <use xlink:href="#me3ff4269a1" x="119.952893" y="167.074964" style="fill: #ff0000; stroke: #ff0000"/>
     <use xlink:href="#me3ff4269a1" x="131.481818" y="145.125618" style="fill: #ff0000; stroke: #ff0000"/>
     <use xlink:href="#me3ff4269a1" x="143.010744" y="131.147878" style="fill: #ff0000; stroke: #ff0000"/>
     <use xlink:href="#me3ff4269a1" x="154.539669" y="119.758333" style="fill: #ff0000; stroke: #ff0000"/>
     <use xlink:href="#me3ff4269a1" x="166.068595" y="109.442572" style="fill: #ff0000; stroke: #ff0000"/>
     <use xlink:href="#me3ff4269a1" x="177.597521" y="101.672746" style="fill: #ff0000; stroke: #ff0000"/>
     <use xlink:href="#me3ff4269a1" x="189.126446" y="96.81297" style="fill: #ff0000; stroke: #ff0000"/>
     <use xlink:href="#me3ff4269a1" x="200.655372" y="92.524181" style="fill: #ff0000; stroke: #ff0000"/>
     <use xlink:href="#me3ff4269a1" x="212.184298" y="88.494976" style="fill: #ff0000; stroke: #ff0000"/>
     <use xlink:href="#me3ff4269a1" x="223.713223" y="85.186787" style="fill: #ff0000; stroke: #ff0000"/>
     <use xlink:href="#me3ff4269a1" x="235.242149" y="82.886733" style="fill: #ff0000; stroke: #ff0000"/>
     <use xlink:href="#me3ff4269a1" x="246.771074" y="80.856372" style="fill: #ff0000; stroke: #ff0000"/>
     <use xlink:href="#me3ff4269a1" x="258.3" y="78.879572" style="fill: #ff0000; stroke: #ff0000"/>
     <use xlink:href="#me3ff4269a1" x="269.828926" y="77.125405" style="fill: #ff0000; stroke: #ff0000"/>
     <use xlink:href="#me3ff4269a1" x="281.357851" y="75.405194" style="fill: #ff0000; stroke: #ff0000"/>
     <use xlink:href="#me3ff4269a1" x="292.886777" y="73.695609" style="fill: #ff0000; stroke: #ff0000"/>
     <use xlink:href="#me3ff4269a1" x="304.415702" y="72.006888" style="fill: #ff0000; stroke: #ff0000"/>
     <use xlink:href="#me3ff4269a1" x="315.944628" y="70.423599" style="fill: #ff0000; stroke: #ff0000"/>
     <use xlink:href="#me3ff4269a1" x="327.473554" y="68.840316" style="fill: #ff0000; stroke: #ff0000"/>
     <use xlink:href="#me3ff4269a1" x="339.002479" y="67.298931" style="fill: #ff0000; stroke: #ff0000"/>
     <use xlink:href="#me3ff4269a1" x="350.531405" y="65.770598" style="fill: #ff0000; stroke: #ff0000"/>
     <use xlink:href="#me3ff4269a1" x="362.060331" y="64.292734" style="fill: #ff0000; stroke: #ff0000"/>
     <use xlink:href="#me3ff4269a1" x="373.589256" y="62.84519" style="fill: #ff0000; stroke: #ff0000"/>
     <use xlink:href="#me3ff4269a1" x="385.118182" y="61.428847" style="fill: #ff0000; stroke: #ff0000"/>
     <use xlink:href="#me3ff4269a1" x="396.647107" y="60.068904" style="fill: #ff0000; stroke: #ff0000"/>
     <use xlink:href="#me3ff4269a1" x="408.176033" y="58.716054" style="fill: #ff0000; stroke: #ff0000"/>
     <use xlink:href="#me3ff4269a1" x="419.704959" y="57.427167" style="fill: #ff0000; stroke: #ff0000"/>
     <use xlink:href="#me3ff4269a1" x="431.233884" y="56.142857" style="fill: #ff0000; stroke: #ff0000"/>
    </g>
   </g>
   <g id="matplotlib.axis_1">
    <g id="xtick_1">
     <g id="line2d_1">
      <defs>
       <path id="m94ec35609b" d="M 0 0 
L 0 3.5 
" style="stroke: #000000; stroke-width: 0.8"/>
      </defs>
      <g>
       <use xlink:href="#m94ec35609b" x="85.366116" y="315" style="stroke: #000000; stroke-width: 0.8"/>
      </g>
     </g>
     <g id="text_1">
      <!-- 1 -->
      <g transform="translate(82.502991 328.838594)scale(0.09 -0.09)">
       <defs>
        <path id="DejaVuSans-31" d="M 794 531 
L 1825 531 
L 1825 4091 
L 703 3866 
L 703 4441 
L 1819 4666 
L 2450 4666 
L 2450 531 
L 3481 531 
L 3481 0 
L 794 0 
L 794 531 
z
" transform="scale(0.015625)"/>
       </defs>
       <use xlink:href="#DejaVuSans-31"/>
      </g>
     </g>
    </g>
    <g id="xtick_2">
     <g id="line2d_2">
      <g>
       <use xlink:href="#m94ec35609b" x="154.539669" y="315" style="stroke: #000000; stroke-width: 0.8"/>
      </g>
     </g>
     <g id="text_2">
      <!-- 7 -->
      <g transform="translate(151.676544 328.838594)scale(0.09 -0.09)">
       <defs>
        <path id="DejaVuSans-37" d="M 525 4666 
L 3525 4666 
L 3525 4397 
L 1831 0 
L 1172 0 
L 2766 4134 
L 525 4134 
L 525 4666 
z
" transform="scale(0.015625)"/>
       </defs>
       <use xlink:href="#DejaVuSans-37"/>
      </g>
     </g>
    </g>
    <g id="xtick_3">
     <g id="line2d_3">
      <g>
       <use xlink:href="#m94ec35609b" x="223.713223" y="315" style="stroke: #000000; stroke-width: 0.8"/>
      </g>
     </g>
     <g id="text_3">
      <!-- 13 -->
      <g transform="translate(217.986973 328.838594)scale(0.09 -0.09)">
       <defs>
        <path id="DejaVuSans-33" d="M 2597 2516 
Q 3050 2419 3304 2112 
Q 3559 1806 3559 1356 
Q 3559 666 3084 287 
Q 2609 -91 1734 -91 
Q 1441 -91 1130 -33 
Q 819 25 488 141 
L 488 750 
Q 750 597 1062 519 
Q 1375 441 1716 441 
Q 2309 441 2620 675 
Q 2931 909 2931 1356 
Q 2931 1769 2642 2001 
Q 2353 2234 1838 2234 
L 1294 2234 
L 1294 2753 
L 1863 2753 
Q 2328 2753 2575 2939 
Q 2822 3125 2822 3475 
Q 2822 3834 2567 4026 
Q 2313 4219 1838 4219 
Q 1578 4219 1281 4162 
Q 984 4106 628 3988 
L 628 4550 
Q 988 4650 1302 4700 
Q 1616 4750 1894 4750 
Q 2613 4750 3031 4423 
Q 3450 4097 3450 3541 
Q 3450 3153 3228 2886 
Q 3006 2619 2597 2516 
z
" transform="scale(0.015625)"/>
       </defs>
       <use xlink:href="#DejaVuSans-31"/>
       <use xlink:href="#DejaVuSans-33" x="63.623047"/>
      </g>
     </g>
    </g>
    <g id="xtick_4">
     <g id="line2d_4">
      <g>
       <use xlink:href="#m94ec35609b" x="292.886777" y="315" style="stroke: #000000; stroke-width: 0.8"/>
      </g>
     </g>
     <g id="text_4">
      <!-- 19 -->
      <g transform="translate(287.160527 328.838594)scale(0.09 -0.09)">
       <defs>
        <path id="DejaVuSans-39" d="M 703 97 
L 703 672 
Q 941 559 1184 500 
Q 1428 441 1663 441 
Q 2288 441 2617 861 
Q 2947 1281 2994 2138 
Q 2813 1869 2534 1725 
Q 2256 1581 1919 1581 
Q 1219 1581 811 2004 
Q 403 2428 403 3163 
Q 403 3881 828 4315 
Q 1253 4750 1959 4750 
Q 2769 4750 3195 4129 
Q 3622 3509 3622 2328 
Q 3622 1225 3098 567 
Q 2575 -91 1691 -91 
Q 1453 -91 1209 -44 
Q 966 3 703 97 
z
M 1959 2075 
Q 2384 2075 2632 2365 
Q 2881 2656 2881 3163 
Q 2881 3666 2632 3958 
Q 2384 4250 1959 4250 
Q 1534 4250 1286 3958 
Q 1038 3666 1038 3163 
Q 1038 2656 1286 2365 
Q 1534 2075 1959 2075 
z
" transform="scale(0.015625)"/>
       </defs>
       <use xlink:href="#DejaVuSans-31"/>
       <use xlink:href="#DejaVuSans-39" x="63.623047"/>
      </g>
     </g>
    </g>
    <g id="xtick_5">
     <g id="line2d_5">
      <g>
       <use xlink:href="#m94ec35609b" x="362.060331" y="315" style="stroke: #000000; stroke-width: 0.8"/>
      </g>
     </g>
     <g id="text_5">
      <!-- 25 -->
      <g transform="translate(356.334081 328.838594)scale(0.09 -0.09)">
       <defs>
        <path id="DejaVuSans-32" d="M 1228 531 
L 3431 531 
L 3431 0 
L 469 0 
L 469 531 
Q 828 903 1448 1529 
Q 2069 2156 2228 2338 
Q 2531 2678 2651 2914 
Q 2772 3150 2772 3378 
Q 2772 3750 2511 3984 
Q 2250 4219 1831 4219 
Q 1534 4219 1204 4116 
Q 875 4013 500 3803 
L 500 4441 
Q 881 4594 1212 4672 
Q 1544 4750 1819 4750 
Q 2544 4750 2975 4387 
Q 3406 4025 3406 3419 
Q 3406 3131 3298 2873 
Q 3191 2616 2906 2266 
Q 2828 2175 2409 1742 
Q 1991 1309 1228 531 
z
" transform="scale(0.015625)"/>
        <path id="DejaVuSans-35" d="M 691 4666 
L 3169 4666 
L 3169 4134 
L 1269 4134 
L 1269 2991 
Q 1406 3038 1543 3061 
Q 1681 3084 1819 3084 
Q 2600 3084 3056 2656 
Q 3513 2228 3513 1497 
Q 3513 744 3044 326 
Q 2575 -91 1722 -91 
Q 1428 -91 1123 -41 
Q 819 9 494 109 
L 494 744 
Q 775 591 1075 516 
Q 1375 441 1709 441 
Q 2250 441 2565 725 
Q 2881 1009 2881 1497 
Q 2881 1984 2565 2268 
Q 2250 2553 1709 2553 
Q 1456 2553 1204 2497 
Q 953 2441 691 2322 
L 691 4666 
z
" transform="scale(0.015625)"/>
       </defs>
       <use xlink:href="#DejaVuSans-32"/>
       <use xlink:href="#DejaVuSans-35" x="63.623047"/>
      </g>
     </g>
    </g>
    <g id="xtick_6">
     <g id="line2d_6">
      <g>
       <use xlink:href="#m94ec35609b" x="431.233884" y="315" style="stroke: #000000; stroke-width: 0.8"/>
      </g>
     </g>
     <g id="text_6">
      <!-- 31 -->
      <g transform="translate(425.507634 328.838594)scale(0.09 -0.09)">
       <use xlink:href="#DejaVuSans-33"/>
       <use xlink:href="#DejaVuSans-31" x="63.623047"/>
      </g>
     </g>
    </g>
    <g id="text_7">
     <!-- Principal Component -->
     <g transform="translate(206.375781 342.30875)scale(0.1 -0.1)">
      <defs>
       <path id="DejaVuSans-50" d="M 1259 4147 
L 1259 2394 
L 2053 2394 
Q 2494 2394 2734 2622 
Q 2975 2850 2975 3272 
Q 2975 3691 2734 3919 
Q 2494 4147 2053 4147 
L 1259 4147 
z
M 628 4666 
L 2053 4666 
Q 2838 4666 3239 4311 
Q 3641 3956 3641 3272 
Q 3641 2581 3239 2228 
Q 2838 1875 2053 1875 
L 1259 1875 
L 1259 0 
L 628 0 
L 628 4666 
z
" transform="scale(0.015625)"/>
       <path id="DejaVuSans-72" d="M 2631 2963 
Q 2534 3019 2420 3045 
Q 2306 3072 2169 3072 
Q 1681 3072 1420 2755 
Q 1159 2438 1159 1844 
L 1159 0 
L 581 0 
L 581 3500 
L 1159 3500 
L 1159 2956 
Q 1341 3275 1631 3429 
Q 1922 3584 2338 3584 
Q 2397 3584 2469 3576 
Q 2541 3569 2628 3553 
L 2631 2963 
z
" transform="scale(0.015625)"/>
       <path id="DejaVuSans-69" d="M 603 3500 
L 1178 3500 
L 1178 0 
L 603 0 
L 603 3500 
z
M 603 4863 
L 1178 4863 
L 1178 4134 
L 603 4134 
L 603 4863 
z
" transform="scale(0.015625)"/>
       <path id="DejaVuSans-6e" d="M 3513 2113 
L 3513 0 
L 2938 0 
L 2938 2094 
Q 2938 2591 2744 2837 
Q 2550 3084 2163 3084 
Q 1697 3084 1428 2787 
Q 1159 2491 1159 1978 
L 1159 0 
L 581 0 
L 581 3500 
L 1159 3500 
L 1159 2956 
Q 1366 3272 1645 3428 
Q 1925 3584 2291 3584 
Q 2894 3584 3203 3211 
Q 3513 2838 3513 2113 
z
" transform="scale(0.015625)"/>
       <path id="DejaVuSans-63" d="M 3122 3366 
L 3122 2828 
Q 2878 2963 2633 3030 
Q 2388 3097 2138 3097 
Q 1578 3097 1268 2742 
Q 959 2388 959 1747 
Q 959 1106 1268 751 
Q 1578 397 2138 397 
Q 2388 397 2633 464 
Q 2878 531 3122 666 
L 3122 134 
Q 2881 22 2623 -34 
Q 2366 -91 2075 -91 
Q 1284 -91 818 406 
Q 353 903 353 1747 
Q 353 2603 823 3093 
Q 1294 3584 2113 3584 
Q 2378 3584 2631 3529 
Q 2884 3475 3122 3366 
z
" transform="scale(0.015625)"/>
       <path id="DejaVuSans-70" d="M 1159 525 
L 1159 -1331 
L 581 -1331 
L 581 3500 
L 1159 3500 
L 1159 2969 
Q 1341 3281 1617 3432 
Q 1894 3584 2278 3584 
Q 2916 3584 3314 3078 
Q 3713 2572 3713 1747 
Q 3713 922 3314 415 
Q 2916 -91 2278 -91 
Q 1894 -91 1617 61 
Q 1341 213 1159 525 
z
M 3116 1747 
Q 3116 2381 2855 2742 
Q 2594 3103 2138 3103 
Q 1681 3103 1420 2742 
Q 1159 2381 1159 1747 
Q 1159 1113 1420 752 
Q 1681 391 2138 391 
Q 2594 391 2855 752 
Q 3116 1113 3116 1747 
z
" transform="scale(0.015625)"/>
       <path id="DejaVuSans-61" d="M 2194 1759 
Q 1497 1759 1228 1600 
Q 959 1441 959 1056 
Q 959 750 1161 570 
Q 1363 391 1709 391 
Q 2188 391 2477 730 
Q 2766 1069 2766 1631 
L 2766 1759 
L 2194 1759 
z
M 3341 1997 
L 3341 0 
L 2766 0 
L 2766 531 
Q 2569 213 2275 61 
Q 1981 -91 1556 -91 
Q 1019 -91 701 211 
Q 384 513 384 1019 
Q 384 1609 779 1909 
Q 1175 2209 1959 2209 
L 2766 2209 
L 2766 2266 
Q 2766 2663 2505 2880 
Q 2244 3097 1772 3097 
Q 1472 3097 1187 3025 
Q 903 2953 641 2809 
L 641 3341 
Q 956 3463 1253 3523 
Q 1550 3584 1831 3584 
Q 2591 3584 2966 3190 
Q 3341 2797 3341 1997 
z
" transform="scale(0.015625)"/>
       <path id="DejaVuSans-6c" d="M 603 4863 
L 1178 4863 
L 1178 0 
L 603 0 
L 603 4863 
z
" transform="scale(0.015625)"/>
       <path id="DejaVuSans-20" transform="scale(0.015625)"/>
       <path id="DejaVuSans-43" d="M 4122 4306 
L 4122 3641 
Q 3803 3938 3442 4084 
Q 3081 4231 2675 4231 
Q 1875 4231 1450 3742 
Q 1025 3253 1025 2328 
Q 1025 1406 1450 917 
Q 1875 428 2675 428 
Q 3081 428 3442 575 
Q 3803 722 4122 1019 
L 4122 359 
Q 3791 134 3420 21 
Q 3050 -91 2638 -91 
Q 1578 -91 968 557 
Q 359 1206 359 2328 
Q 359 3453 968 4101 
Q 1578 4750 2638 4750 
Q 3056 4750 3426 4639 
Q 3797 4528 4122 4306 
z
" transform="scale(0.015625)"/>
       <path id="DejaVuSans-6f" d="M 1959 3097 
Q 1497 3097 1228 2736 
Q 959 2375 959 1747 
Q 959 1119 1226 758 
Q 1494 397 1959 397 
Q 2419 397 2687 759 
Q 2956 1122 2956 1747 
Q 2956 2369 2687 2733 
Q 2419 3097 1959 3097 
z
M 1959 3584 
Q 2709 3584 3137 3096 
Q 3566 2609 3566 1747 
Q 3566 888 3137 398 
Q 2709 -91 1959 -91 
Q 1206 -91 779 398 
Q 353 888 353 1747 
Q 353 2609 779 3096 
Q 1206 3584 1959 3584 
z
" transform="scale(0.015625)"/>
       <path id="DejaVuSans-6d" d="M 3328 2828 
Q 3544 3216 3844 3400 
Q 4144 3584 4550 3584 
Q 5097 3584 5394 3201 
Q 5691 2819 5691 2113 
L 5691 0 
L 5113 0 
L 5113 2094 
Q 5113 2597 4934 2840 
Q 4756 3084 4391 3084 
Q 3944 3084 3684 2787 
Q 3425 2491 3425 1978 
L 3425 0 
L 2847 0 
L 2847 2094 
Q 2847 2600 2669 2842 
Q 2491 3084 2119 3084 
Q 1678 3084 1418 2786 
Q 1159 2488 1159 1978 
L 1159 0 
L 581 0 
L 581 3500 
L 1159 3500 
L 1159 2956 
Q 1356 3278 1631 3431 
Q 1906 3584 2284 3584 
Q 2666 3584 2933 3390 
Q 3200 3197 3328 2828 
z
" transform="scale(0.015625)"/>
       <path id="DejaVuSans-65" d="M 3597 1894 
L 3597 1613 
L 953 1613 
Q 991 1019 1311 708 
Q 1631 397 2203 397 
Q 2534 397 2845 478 
Q 3156 559 3463 722 
L 3463 178 
Q 3153 47 2828 -22 
Q 2503 -91 2169 -91 
Q 1331 -91 842 396 
Q 353 884 353 1716 
Q 353 2575 817 3079 
Q 1281 3584 2069 3584 
Q 2775 3584 3186 3129 
Q 3597 2675 3597 1894 
z
M 3022 2063 
Q 3016 2534 2758 2815 
Q 2500 3097 2075 3097 
Q 1594 3097 1305 2825 
Q 1016 2553 972 2059 
L 3022 2063 
z
" transform="scale(0.015625)"/>
       <path id="DejaVuSans-74" d="M 1172 4494 
L 1172 3500 
L 2356 3500 
L 2356 3053 
L 1172 3053 
L 1172 1153 
Q 1172 725 1289 603 
Q 1406 481 1766 481 
L 2356 481 
L 2356 0 
L 1766 0 
Q 1100 0 847 248 
Q 594 497 594 1153 
L 594 3053 
L 172 3053 
L 172 3500 
L 594 3500 
L 594 4494 
L 1172 4494 
z
" transform="scale(0.015625)"/>
      </defs>
      <use xlink:href="#DejaVuSans-50"/>
      <use xlink:href="#DejaVuSans-72" x="58.552734"/>
      <use xlink:href="#DejaVuSans-69" x="99.666016"/>
      <use xlink:href="#DejaVuSans-6e" x="127.449219"/>
      <use xlink:href="#DejaVuSans-63" x="190.828125"/>
      <use xlink:href="#DejaVuSans-69" x="245.808594"/>
      <use xlink:href="#DejaVuSans-70" x="273.591797"/>
      <use xlink:href="#DejaVuSans-61" x="337.068359"/>
      <use xlink:href="#DejaVuSans-6c" x="398.347656"/>
      <use xlink:href="#DejaVuSans-20" x="426.130859"/>
      <use xlink:href="#DejaVuSans-43" x="457.917969"/>
      <use xlink:href="#DejaVuSans-6f" x="527.742188"/>
      <use xlink:href="#DejaVuSans-6d" x="588.923828"/>
      <use xlink:href="#DejaVuSans-70" x="686.335938"/>
      <use xlink:href="#DejaVuSans-6f" x="749.8125"/>
      <use xlink:href="#DejaVuSans-6e" x="810.994141"/>
      <use xlink:href="#DejaVuSans-65" x="874.373047"/>
      <use xlink:href="#DejaVuSans-6e" x="935.896484"/>
      <use xlink:href="#DejaVuSans-74" x="999.275391"/>
     </g>
    </g>
   </g>
   <g id="matplotlib.axis_2">
    <g id="ytick_1">
     <g id="line2d_7">
      <defs>
       <path id="m67a4627e21" d="M 0 0 
L -3.5 0 
" style="stroke: #000000; stroke-width: 0.8"/>
      </defs>
      <g>
       <use xlink:href="#m67a4627e21" x="63" y="315" style="stroke: #000000; stroke-width: 0.8"/>
      </g>
     </g>
     <g id="text_8">
      <!-- 0.0 -->
      <g transform="translate(40.096875 318.799219)scale(0.1 -0.1)">
       <defs>
        <path id="DejaVuSans-30" d="M 2034 4250 
Q 1547 4250 1301 3770 
Q 1056 3291 1056 2328 
Q 1056 1369 1301 889 
Q 1547 409 2034 409 
Q 2525 409 2770 889 
Q 3016 1369 3016 2328 
Q 3016 3291 2770 3770 
Q 2525 4250 2034 4250 
z
M 2034 4750 
Q 2819 4750 3233 4129 
Q 3647 3509 3647 2328 
Q 3647 1150 3233 529 
Q 2819 -91 2034 -91 
Q 1250 -91 836 529 
Q 422 1150 422 2328 
Q 422 3509 836 4129 
Q 1250 4750 2034 4750 
z
" transform="scale(0.015625)"/>
        <path id="DejaVuSans-2e" d="M 684 794 
L 1344 794 
L 1344 0 
L 684 0 
L 684 794 
z
" transform="scale(0.015625)"/>
       </defs>
       <use xlink:href="#DejaVuSans-30"/>
       <use xlink:href="#DejaVuSans-2e" x="63.623047"/>
       <use xlink:href="#DejaVuSans-30" x="95.410156"/>
      </g>
     </g>
    </g>
    <g id="ytick_2">
     <g id="line2d_8">
      <g>
       <use xlink:href="#m67a4627e21" x="63" y="262.383851" style="stroke: #000000; stroke-width: 0.8"/>
      </g>
     </g>
     <g id="text_9">
      <!-- 0.2 -->
      <g transform="translate(40.096875 266.18307)scale(0.1 -0.1)">
       <use xlink:href="#DejaVuSans-30"/>
       <use xlink:href="#DejaVuSans-2e" x="63.623047"/>
       <use xlink:href="#DejaVuSans-32" x="95.410156"/>
      </g>
     </g>
    </g>
    <g id="ytick_3">
     <g id="line2d_9">
      <g>
       <use xlink:href="#m67a4627e21" x="63" y="209.767702" style="stroke: #000000; stroke-width: 0.8"/>
      </g>
     </g>
     <g id="text_10">
      <!-- 0.4 -->
      <g transform="translate(40.096875 213.566921)scale(0.1 -0.1)">
       <defs>
        <path id="DejaVuSans-34" d="M 2419 4116 
L 825 1625 
L 2419 1625 
L 2419 4116 
z
M 2253 4666 
L 3047 4666 
L 3047 1625 
L 3713 1625 
L 3713 1100 
L 3047 1100 
L 3047 0 
L 2419 0 
L 2419 1100 
L 313 1100 
L 313 1709 
L 2253 4666 
z
" transform="scale(0.015625)"/>
       </defs>
       <use xlink:href="#DejaVuSans-30"/>
       <use xlink:href="#DejaVuSans-2e" x="63.623047"/>
       <use xlink:href="#DejaVuSans-34" x="95.410156"/>
      </g>
     </g>
    </g>
    <g id="ytick_4">
     <g id="line2d_10">
      <g>
       <use xlink:href="#m67a4627e21" x="63" y="157.151553" style="stroke: #000000; stroke-width: 0.8"/>
      </g>
     </g>
     <g id="text_11">
      <!-- 0.6 -->
      <g transform="translate(40.096875 160.950772)scale(0.1 -0.1)">
       <defs>
        <path id="DejaVuSans-36" d="M 2113 2584 
Q 1688 2584 1439 2293 
Q 1191 2003 1191 1497 
Q 1191 994 1439 701 
Q 1688 409 2113 409 
Q 2538 409 2786 701 
Q 3034 994 3034 1497 
Q 3034 2003 2786 2293 
Q 2538 2584 2113 2584 
z
M 3366 4563 
L 3366 3988 
Q 3128 4100 2886 4159 
Q 2644 4219 2406 4219 
Q 1781 4219 1451 3797 
Q 1122 3375 1075 2522 
Q 1259 2794 1537 2939 
Q 1816 3084 2150 3084 
Q 2853 3084 3261 2657 
Q 3669 2231 3669 1497 
Q 3669 778 3244 343 
Q 2819 -91 2113 -91 
Q 1303 -91 875 529 
Q 447 1150 447 2328 
Q 447 3434 972 4092 
Q 1497 4750 2381 4750 
Q 2619 4750 2861 4703 
Q 3103 4656 3366 4563 
z
" transform="scale(0.015625)"/>
       </defs>
       <use xlink:href="#DejaVuSans-30"/>
       <use xlink:href="#DejaVuSans-2e" x="63.623047"/>
       <use xlink:href="#DejaVuSans-36" x="95.410156"/>
      </g>
     </g>
    </g>
    <g id="ytick_5">
     <g id="line2d_11">
      <g>
       <use xlink:href="#m67a4627e21" x="63" y="104.535404" style="stroke: #000000; stroke-width: 0.8"/>
      </g>
     </g>
     <g id="text_12">
      <!-- 0.8 -->
      <g transform="translate(40.096875 108.334623)scale(0.1 -0.1)">
       <defs>
        <path id="DejaVuSans-38" d="M 2034 2216 
Q 1584 2216 1326 1975 
Q 1069 1734 1069 1313 
Q 1069 891 1326 650 
Q 1584 409 2034 409 
Q 2484 409 2743 651 
Q 3003 894 3003 1313 
Q 3003 1734 2745 1975 
Q 2488 2216 2034 2216 
z
M 1403 2484 
Q 997 2584 770 2862 
Q 544 3141 544 3541 
Q 544 4100 942 4425 
Q 1341 4750 2034 4750 
Q 2731 4750 3128 4425 
Q 3525 4100 3525 3541 
Q 3525 3141 3298 2862 
Q 3072 2584 2669 2484 
Q 3125 2378 3379 2068 
Q 3634 1759 3634 1313 
Q 3634 634 3220 271 
Q 2806 -91 2034 -91 
Q 1263 -91 848 271 
Q 434 634 434 1313 
Q 434 1759 690 2068 
Q 947 2378 1403 2484 
z
M 1172 3481 
Q 1172 3119 1398 2916 
Q 1625 2713 2034 2713 
Q 2441 2713 2670 2916 
Q 2900 3119 2900 3481 
Q 2900 3844 2670 4047 
Q 2441 4250 2034 4250 
Q 1625 4250 1398 4047 
Q 1172 3844 1172 3481 
z
" transform="scale(0.015625)"/>
       </defs>
       <use xlink:href="#DejaVuSans-30"/>
       <use xlink:href="#DejaVuSans-2e" x="63.623047"/>
       <use xlink:href="#DejaVuSans-38" x="95.410156"/>
      </g>
     </g>
    </g>
    <g id="ytick_6">
     <g id="line2d_12">
      <g>
       <use xlink:href="#m67a4627e21" x="63" y="51.919255" style="stroke: #000000; stroke-width: 0.8"/>
      </g>
     </g>
     <g id="text_13">
      <!-- 1.0 -->
      <g transform="translate(40.096875 55.718474)scale(0.1 -0.1)">
       <use xlink:href="#DejaVuSans-31"/>
       <use xlink:href="#DejaVuSans-2e" x="63.623047"/>
       <use xlink:href="#DejaVuSans-30" x="95.410156"/>
      </g>
     </g>
    </g>
    <g id="text_14">
     <!-- Explained Variance Ratio (%) -->
     <g transform="translate(34.017187 251.508594)rotate(-90)scale(0.1 -0.1)">
      <defs>
       <path id="DejaVuSans-45" d="M 628 4666 
L 3578 4666 
L 3578 4134 
L 1259 4134 
L 1259 2753 
L 3481 2753 
L 3481 2222 
L 1259 2222 
L 1259 531 
L 3634 531 
L 3634 0 
L 628 0 
L 628 4666 
z
" transform="scale(0.015625)"/>
       <path id="DejaVuSans-78" d="M 3513 3500 
L 2247 1797 
L 3578 0 
L 2900 0 
L 1881 1375 
L 863 0 
L 184 0 
L 1544 1831 
L 300 3500 
L 978 3500 
L 1906 2253 
L 2834 3500 
L 3513 3500 
z
" transform="scale(0.015625)"/>
       <path id="DejaVuSans-64" d="M 2906 2969 
L 2906 4863 
L 3481 4863 
L 3481 0 
L 2906 0 
L 2906 525 
Q 2725 213 2448 61 
Q 2172 -91 1784 -91 
Q 1150 -91 751 415 
Q 353 922 353 1747 
Q 353 2572 751 3078 
Q 1150 3584 1784 3584 
Q 2172 3584 2448 3432 
Q 2725 3281 2906 2969 
z
M 947 1747 
Q 947 1113 1208 752 
Q 1469 391 1925 391 
Q 2381 391 2643 752 
Q 2906 1113 2906 1747 
Q 2906 2381 2643 2742 
Q 2381 3103 1925 3103 
Q 1469 3103 1208 2742 
Q 947 2381 947 1747 
z
" transform="scale(0.015625)"/>
       <path id="DejaVuSans-56" d="M 1831 0 
L 50 4666 
L 709 4666 
L 2188 738 
L 3669 4666 
L 4325 4666 
L 2547 0 
L 1831 0 
z
" transform="scale(0.015625)"/>
       <path id="DejaVuSans-52" d="M 2841 2188 
Q 3044 2119 3236 1894 
Q 3428 1669 3622 1275 
L 4263 0 
L 3584 0 
L 2988 1197 
Q 2756 1666 2539 1819 
Q 2322 1972 1947 1972 
L 1259 1972 
L 1259 0 
L 628 0 
L 628 4666 
L 2053 4666 
Q 2853 4666 3247 4331 
Q 3641 3997 3641 3322 
Q 3641 2881 3436 2590 
Q 3231 2300 2841 2188 
z
M 1259 4147 
L 1259 2491 
L 2053 2491 
Q 2509 2491 2742 2702 
Q 2975 2913 2975 3322 
Q 2975 3731 2742 3939 
Q 2509 4147 2053 4147 
L 1259 4147 
z
" transform="scale(0.015625)"/>
       <path id="DejaVuSans-28" d="M 1984 4856 
Q 1566 4138 1362 3434 
Q 1159 2731 1159 2009 
Q 1159 1288 1364 580 
Q 1569 -128 1984 -844 
L 1484 -844 
Q 1016 -109 783 600 
Q 550 1309 550 2009 
Q 550 2706 781 3412 
Q 1013 4119 1484 4856 
L 1984 4856 
z
" transform="scale(0.015625)"/>
       <path id="DejaVuSans-25" d="M 4653 2053 
Q 4381 2053 4226 1822 
Q 4072 1591 4072 1178 
Q 4072 772 4226 539 
Q 4381 306 4653 306 
Q 4919 306 5073 539 
Q 5228 772 5228 1178 
Q 5228 1588 5073 1820 
Q 4919 2053 4653 2053 
z
M 4653 2450 
Q 5147 2450 5437 2106 
Q 5728 1763 5728 1178 
Q 5728 594 5436 251 
Q 5144 -91 4653 -91 
Q 4153 -91 3862 251 
Q 3572 594 3572 1178 
Q 3572 1766 3864 2108 
Q 4156 2450 4653 2450 
z
M 1428 4353 
Q 1159 4353 1004 4120 
Q 850 3888 850 3481 
Q 850 3069 1003 2837 
Q 1156 2606 1428 2606 
Q 1700 2606 1854 2837 
Q 2009 3069 2009 3481 
Q 2009 3884 1853 4118 
Q 1697 4353 1428 4353 
z
M 4250 4750 
L 4750 4750 
L 1831 -91 
L 1331 -91 
L 4250 4750 
z
M 1428 4750 
Q 1922 4750 2215 4408 
Q 2509 4066 2509 3481 
Q 2509 2891 2217 2550 
Q 1925 2209 1428 2209 
Q 931 2209 642 2551 
Q 353 2894 353 3481 
Q 353 4063 643 4406 
Q 934 4750 1428 4750 
z
" transform="scale(0.015625)"/>
       <path id="DejaVuSans-29" d="M 513 4856 
L 1013 4856 
Q 1481 4119 1714 3412 
Q 1947 2706 1947 2009 
Q 1947 1309 1714 600 
Q 1481 -109 1013 -844 
L 513 -844 
Q 928 -128 1133 580 
Q 1338 1288 1338 2009 
Q 1338 2731 1133 3434 
Q 928 4138 513 4856 
z
" transform="scale(0.015625)"/>
      </defs>
      <use xlink:href="#DejaVuSans-45"/>
      <use xlink:href="#DejaVuSans-78" x="63.183594"/>
      <use xlink:href="#DejaVuSans-70" x="122.363281"/>
      <use xlink:href="#DejaVuSans-6c" x="185.839844"/>
      <use xlink:href="#DejaVuSans-61" x="213.623047"/>
      <use xlink:href="#DejaVuSans-69" x="274.902344"/>
      <use xlink:href="#DejaVuSans-6e" x="302.685547"/>
      <use xlink:href="#DejaVuSans-65" x="366.064453"/>
      <use xlink:href="#DejaVuSans-64" x="427.587891"/>
      <use xlink:href="#DejaVuSans-20" x="491.064453"/>
      <use xlink:href="#DejaVuSans-56" x="522.851562"/>
      <use xlink:href="#DejaVuSans-61" x="583.509766"/>
      <use xlink:href="#DejaVuSans-72" x="644.789062"/>
      <use xlink:href="#DejaVuSans-69" x="685.902344"/>
      <use xlink:href="#DejaVuSans-61" x="713.685547"/>
      <use xlink:href="#DejaVuSans-6e" x="774.964844"/>
      <use xlink:href="#DejaVuSans-63" x="838.34375"/>
      <use xlink:href="#DejaVuSans-65" x="893.324219"/>
      <use xlink:href="#DejaVuSans-20" x="954.847656"/>
      <use xlink:href="#DejaVuSans-52" x="986.634766"/>
      <use xlink:href="#DejaVuSans-61" x="1053.867188"/>
      <use xlink:href="#DejaVuSans-74" x="1115.146484"/>
      <use xlink:href="#DejaVuSans-69" x="1154.355469"/>
      <use xlink:href="#DejaVuSans-6f" x="1182.138672"/>
      <use xlink:href="#DejaVuSans-20" x="1243.320312"/>
      <use xlink:href="#DejaVuSans-28" x="1275.107422"/>
      <use xlink:href="#DejaVuSans-25" x="1314.121094"/>
      <use xlink:href="#DejaVuSans-29" x="1409.140625"/>
     </g>
    </g>
   </g>
   <g id="line2d_13">
    <path d="M 85.366116 259.948968 
L 96.895041 221.600124 
L 108.423967 190.60017 
L 119.952893 167.074964 
L 131.481818 145.125618 
L 143.010744 131.147878 
L 154.539669 119.758333 
L 166.068595 109.442572 
L 177.597521 101.672746 
L 189.126446 96.81297 
L 200.655372 92.524181 
L 212.184298 88.494976 
L 223.713223 85.186787 
L 235.242149 82.886733 
L 246.771074 80.856372 
L 258.3 78.879572 
L 269.828926 77.125405 
L 281.357851 75.405194 
L 292.886777 73.695609 
L 304.415702 72.006888 
L 315.944628 70.423599 
L 327.473554 68.840316 
L 339.002479 67.298931 
L 350.531405 65.770598 
L 362.060331 64.292734 
L 373.589256 62.84519 
L 385.118182 61.428847 
L 396.647107 60.068904 
L 408.176033 58.716054 
L 419.704959 57.427167 
L 431.233884 56.142857 
" clip-path="url(#p837ffd69ce)" style="fill: none; stroke: #ff0000; stroke-width: 1.5; stroke-linecap: square"/>
   </g>
   <g id="patch_34">
    <path d="M 63 315 
L 63 43.2 
" style="fill: none; stroke: #000000; stroke-width: 0.8; stroke-linejoin: miter; stroke-linecap: square"/>
   </g>
   <g id="patch_35">
    <path d="M 453.6 315 
L 453.6 43.2 
" style="fill: none; stroke: #000000; stroke-width: 0.8; stroke-linejoin: miter; stroke-linecap: square"/>
   </g>
   <g id="patch_36">
    <path d="M 63 315 
L 453.6 315 
" style="fill: none; stroke: #000000; stroke-width: 0.8; stroke-linejoin: miter; stroke-linecap: square"/>
   </g>
   <g id="patch_37">
    <path d="M 63 43.2 
L 453.6 43.2 
" style="fill: none; stroke: #000000; stroke-width: 0.8; stroke-linejoin: miter; stroke-linecap: square"/>
   </g>
  </g>
 </g>
 <defs>
  <clipPath id="p837ffd69ce">
   <rect x="63" y="43.2" width="390.6" height="271.8"/>
  </clipPath>
 </defs>
</svg>
