<svg xmlns="http://www.w3.org/2000/svg" xmlns:dc="http://purl.org/dc/elements/1.1/" xmlns:ns2="http://creativecommons.org/ns#" xmlns:rdf="http://www.w3.org/1999/02/22-rdf-syntax-ns#" xmlns:xlink="http://www.w3.org/1999/xlink" width="275.0" height="356.0" viewBox="0.0 0.0 274.5 356.0">
<g id="graph0" class="graph" transform="scale(1.0 1.0) rotate(0) translate(4 352)">
<title>G</title>
<polygon fill="white" stroke="transparent" points="-4,4 -4,-352 270.5,-352 270.5,4 -4,4" />
<g id="clust9" class="cluster">
<title>cluster_legend</title>
</g>

<g id="node1" class="node">
<title>node2</title>
<text text-anchor="start" x="27" y="-199.4" font-family="Helvetica,sans-Serif" font-size="12.00" fill="#444443">PC 31@-0.06</text>
</g>

<g id="node6" class="node">
<title>node5</title>
<text text-anchor="start" x="114" y="-199.4" font-family="Helvetica,sans-Serif" font-size="12.00" fill="#444443">PC 7@2.38</text>
</g>


<g id="node9" class="node">
<title>leaf3</title>
<polygon fill="none" stroke="#444443" stroke-width="0" points="49,-179 10,-179 10,-148 49,-148 49,-179" />
<svg width="31px" height="23px" viewBox="0 0 41.516719 30.941329" version="1.1" preserveAspectRatio="xMinYMin meet" x="14.5" y="-174.5">
 <metadata>
  <rdf:RDF>
   <ns2:Work>
    <dc:type rdf:resource="http://purl.org/dc/dcmitype/StillImage" />
    <dc:date>2022-09-08T15:58:33.817037</dc:date>
    <dc:format>image/svg+xml</dc:format>
    <dc:creator>
     <ns2:Agent>
      <dc:title>Matplotlib v3.5.1, https://matplotlib.org/</dc:title>
     </ns2:Agent>
    </dc:creator>
   </ns2:Work>
  </rdf:RDF>
 </metadata>
 <defs>
  <style type="text/css">*{stroke-linejoin: round; stroke-linecap: butt}</style>
 </defs>
 <g id="figure_1">
  <g id="patch_1">
   <path d="M 0 30.941329  L 41.516719 30.941329  L 41.516719 -0  L 0 -0  L 0 30.941329  z " style="fill: none" />
  </g>
  <g id="axes_1">
   <g id="patch_2">
    <path d="M 27.100359 6.342  C 27.100359 5.509176 26.936311 4.684451 26.617603 3.915022  C 26.298895 3.145593 25.831726 2.446424 25.242831 1.857529  C 24.653935 1.268633 23.954767 0.801464 23.185338 0.482756  C 22.415909 0.164048 21.591183 0 20.758359 0  C 19.925536 0 19.10081 0.164048 18.331381 0.482756  C 17.561952 0.801464 16.862784 1.268633 16.273888 1.857529  C 15.684993 2.446424 15.217823 3.145593 14.899115 3.915022  C 14.580408 4.684451 14.416359 5.509176 14.416359 6.342  C 14.416359 7.174824 14.580408 7.999549 14.899115 8.768978  C 15.217823 9.538407 15.684993 10.237576 16.273888 10.826471  C 16.862784 11.415367 17.561952 11.882536 18.331381 12.201244  C 19.10081 12.519952 19.925536 12.684 20.758359 12.684  C 21.591183 12.684 22.415909 12.519952 23.185338 12.201244  C 23.954767 11.882536 24.653935 11.415367 25.242831 10.826471  C 25.831726 10.237576 26.298895 9.538407 26.617603 8.768978  C 26.936311 7.999549 27.100359 7.174824 27.100359 6.342  M 20.758359 6.342  M 27.100359 6.342  z " style="fill: #ff7f00; stroke: #444443; stroke-width: 0.5; stroke-linejoin: miter" />
   </g>
   <g id="text_1">
    
    <g style="fill: #444443" transform="translate(13.125234 19.633391)scale(0.09 -0.09)">
     <defs>
      <path id="ArialMT-6e" d="M 422 0  L 422 3319  L 928 3319  L 928 2847  Q 1294 3394 1984 3394  Q 2284 3394 2536 3286  Q 2788 3178 2913 3003  Q 3038 2828 3088 2588  Q 3119 2431 3119 2041  L 3119 0  L 2556 0  L 2556 2019  Q 2556 2363 2490 2533  Q 2425 2703 2258 2804  Q 2091 2906 1866 2906  Q 1506 2906 1245 2678  Q 984 2450 984 1813  L 984 0  L 422 0  z " transform="scale(0.015625)" />
      <path id="ArialMT-3d" d="M 3381 2694  L 356 2694  L 356 3219  L 3381 3219  L 3381 2694  z M 3381 1303  L 356 1303  L 356 1828  L 3381 1828  L 3381 1303  z " transform="scale(0.015625)" />
      <path id="ArialMT-33" d="M 269 1209  L 831 1284  Q 928 806 1161 595  Q 1394 384 1728 384  Q 2125 384 2398 659  Q 2672 934 2672 1341  Q 2672 1728 2419 1979  Q 2166 2231 1775 2231  Q 1616 2231 1378 2169  L 1441 2663  Q 1497 2656 1531 2656  Q 1891 2656 2178 2843  Q 2466 3031 2466 3422  Q 2466 3731 2256 3934  Q 2047 4138 1716 4138  Q 1388 4138 1169 3931  Q 950 3725 888 3313  L 325 3413  Q 428 3978 793 4289  Q 1159 4600 1703 4600  Q 2078 4600 2393 4439  Q 2709 4278 2876 4000  Q 3044 3722 3044 3409  Q 3044 3113 2884 2869  Q 2725 2625 2413 2481  Q 2819 2388 3044 2092  Q 3269 1797 3269 1353  Q 3269 753 2831 336  Q 2394 -81 1725 -81  Q 1122 -81 723 278  Q 325 638 269 1209  z " transform="scale(0.015625)" />
     </defs>
     <use xlink:href="#ArialMT-6e" />
     <use xlink:href="#ArialMT-3d" x="55.615234" />
     <use xlink:href="#ArialMT-33" x="114.013672" />
    </g>
    
    <g style="fill: #444443" transform="translate(-0 29.152579)scale(0.09 -0.09)">
     <defs>
      <path id="ArialMT-49" d="M 597 0  L 597 4581  L 1203 4581  L 1203 0  L 597 0  z " transform="scale(0.015625)" />
      <path id="ArialMT-74" d="M 1650 503  L 1731 6  Q 1494 -44 1306 -44  Q 1000 -44 831 53  Q 663 150 594 308  Q 525 466 525 972  L 525 2881  L 113 2881  L 113 3319  L 525 3319  L 525 4141  L 1084 4478  L 1084 3319  L 1650 3319  L 1650 2881  L 1084 2881  L 1084 941  Q 1084 700 1114 631  Q 1144 563 1211 522  Q 1278 481 1403 481  Q 1497 481 1650 503  z " transform="scale(0.015625)" />
      <path id="ArialMT-65" d="M 2694 1069  L 3275 997  Q 3138 488 2766 206  Q 2394 -75 1816 -75  Q 1088 -75 661 373  Q 234 822 234 1631  Q 234 2469 665 2931  Q 1097 3394 1784 3394  Q 2450 3394 2872 2941  Q 3294 2488 3294 1666  Q 3294 1616 3291 1516  L 816 1516  Q 847 969 1125 678  Q 1403 388 1819 388  Q 2128 388 2347 550  Q 2566 713 2694 1069  z M 847 1978  L 2700 1978  Q 2663 2397 2488 2606  Q 2219 2931 1791 2931  Q 1403 2931 1139 2672  Q 875 2413 847 1978  z " transform="scale(0.015625)" />
      <path id="ArialMT-72" d="M 416 0  L 416 3319  L 922 3319  L 922 2816  Q 1116 3169 1280 3281  Q 1444 3394 1641 3394  Q 1925 3394 2219 3213  L 2025 2691  Q 1819 2813 1613 2813  Q 1428 2813 1281 2702  Q 1134 2591 1072 2394  Q 978 2094 978 1738  L 978 0  L 416 0  z " transform="scale(0.015625)" />
      <path id="ArialMT-61" d="M 2588 409  Q 2275 144 1986 34  Q 1697 -75 1366 -75  Q 819 -75 525 192  Q 231 459 231 875  Q 231 1119 342 1320  Q 453 1522 633 1644  Q 813 1766 1038 1828  Q 1203 1872 1538 1913  Q 2219 1994 2541 2106  Q 2544 2222 2544 2253  Q 2544 2597 2384 2738  Q 2169 2928 1744 2928  Q 1347 2928 1158 2789  Q 969 2650 878 2297  L 328 2372  Q 403 2725 575 2942  Q 747 3159 1072 3276  Q 1397 3394 1825 3394  Q 2250 3394 2515 3294  Q 2781 3194 2906 3042  Q 3031 2891 3081 2659  Q 3109 2516 3109 2141  L 3109 1391  Q 3109 606 3145 398  Q 3181 191 3288 0  L 2700 0  Q 2613 175 2588 409  z M 2541 1666  Q 2234 1541 1622 1453  Q 1275 1403 1131 1340  Q 988 1278 909 1158  Q 831 1038 831 891  Q 831 666 1001 516  Q 1172 366 1500 366  Q 1825 366 2078 508  Q 2331 650 2450 897  Q 2541 1088 2541 1459  L 2541 1666  z " transform="scale(0.015625)" />
      <path id="ArialMT-63" d="M 2588 1216  L 3141 1144  Q 3050 572 2676 248  Q 2303 -75 1759 -75  Q 1078 -75 664 370  Q 250 816 250 1647  Q 250 2184 428 2587  Q 606 2991 970 3192  Q 1334 3394 1763 3394  Q 2303 3394 2647 3120  Q 2991 2847 3088 2344  L 2541 2259  Q 2463 2594 2264 2762  Q 2066 2931 1784 2931  Q 1359 2931 1093 2626  Q 828 2322 828 1663  Q 828 994 1084 691  Q 1341 388 1753 388  Q 2084 388 2306 591  Q 2528 794 2588 1216  z " transform="scale(0.015625)" />
      <path id="ArialMT-69" d="M 425 3934  L 425 4581  L 988 4581  L 988 3934  L 425 3934  z M 425 0  L 425 3319  L 988 3319  L 988 0  L 425 0  z " transform="scale(0.015625)" />
      <path id="ArialMT-76" d="M 1344 0  L 81 3319  L 675 3319  L 1388 1331  Q 1503 1009 1600 663  Q 1675 925 1809 1294  L 2547 3319  L 3125 3319  L 1869 0  L 1344 0  z " transform="scale(0.015625)" />
     </defs>
     <use xlink:href="#ArialMT-49" />
     <use xlink:href="#ArialMT-6e" x="27.783203" />
     <use xlink:href="#ArialMT-74" x="83.398438" />
     <use xlink:href="#ArialMT-65" x="111.181641" />
     <use xlink:href="#ArialMT-72" x="166.796875" />
     <use xlink:href="#ArialMT-61" x="200.097656" />
     <use xlink:href="#ArialMT-63" x="255.712891" />
     <use xlink:href="#ArialMT-74" x="305.712891" />
     <use xlink:href="#ArialMT-69" x="333.496094" />
     <use xlink:href="#ArialMT-76" x="355.712891" />
     <use xlink:href="#ArialMT-65" x="405.712891" />
    </g>
   </g>
  </g>
 </g>
</svg></g>

<g id="edge1" class="edge">
<title>node2-&gt;leaf3</title>
<path fill="none" stroke="#444443" stroke-width="0.3" d="M58.19,-195.72C54.78,-192.02 50.17,-187 45.64,-182.06" />
<polygon fill="#444443" stroke="#444443" stroke-width="0.3" points="46.58,-181.02 42.84,-179.02 44.52,-182.91 46.58,-181.02" />
</g>

<g id="node10" class="node">
<title>leaf4</title>
<polygon fill="none" stroke="#444443" stroke-width="0" points="84,-179 63,-179 63,-148 84,-148 84,-179" />
<svg width="13px" height="23px" viewBox="0 0 18.007031 30.941329" version="1.1" preserveAspectRatio="xMinYMin meet" x="67.5" y="-174.5">
 <metadata>
  <rdf:RDF>
   <ns2:Work>
    <dc:type rdf:resource="http://purl.org/dc/dcmitype/StillImage" />
    <dc:date>2022-09-08T15:58:33.880710</dc:date>
    <dc:format>image/svg+xml</dc:format>
    <dc:creator>
     <ns2:Agent>
      <dc:title>Matplotlib v3.5.1, https://matplotlib.org/</dc:title>
     </ns2:Agent>
    </dc:creator>
   </ns2:Work>
  </rdf:RDF>
 </metadata>
 <defs>
  <style type="text/css">*{stroke-linejoin: round; stroke-linecap: butt}</style>
 </defs>
 <g id="figure_1">
  <g id="patch_1">
   <path d="M 0 30.941329  L 18.007031 30.941329  L 18.007031 -0  L 0 -0  L 0 30.941329  z " style="fill: none" />
  </g>
  <g id="axes_1">
   <g id="patch_2">
    <path d="M 15.345516 6.342  C 15.345516 5.228829 15.052434 4.135034 14.495849 3.171  C 13.939263 2.206966 13.13855 1.406252 12.174515 0.849667  C 11.210481 0.293081 10.116686 -0 9.003515 0  C 7.890345 0 6.796549 0.293082 5.832515 0.849667  C 4.868481 1.406252 4.067768 2.206966 3.511182 3.171  C 2.954597 4.135035 2.661516 5.22883 2.661516 6.342001  C 2.661516 7.455171 2.954597 8.548967 3.511183 9.513001  C 4.067768 10.477035 4.868482 11.277748 5.832516 11.834334  L 9.003516 6.342  L 15.345516 6.342  z " style="fill: #377eb8; stroke: #444443; stroke-width: 0.5; stroke-linejoin: miter" />
   </g>
   <g id="patch_3">
    <path d="M 5.832516 11.834334  C 6.79655 12.390919 7.890346 12.684 9.003517 12.684  C 10.116687 12.684 11.210482 12.390918 12.174516 11.834333  C 13.13855 11.277747 13.939264 10.477033 14.495849 9.512999  C 15.052434 8.548965 15.345516 7.455169 15.345516 6.341999  L 9.003516 6.342  L 5.832516 11.834334  z " style="fill: #ff7f00; stroke: #444443; stroke-width: 0.5; stroke-linejoin: miter" />
   </g>
   <g id="text_1">
    
    <g style="fill: #444443" transform="translate(1.370391 19.633391)scale(0.09 -0.09)">
     <defs>
      <path id="ArialMT-6e" d="M 422 0  L 422 3319  L 928 3319  L 928 2847  Q 1294 3394 1984 3394  Q 2284 3394 2536 3286  Q 2788 3178 2913 3003  Q 3038 2828 3088 2588  Q 3119 2431 3119 2041  L 3119 0  L 2556 0  L 2556 2019  Q 2556 2363 2490 2533  Q 2425 2703 2258 2804  Q 2091 2906 1866 2906  Q 1506 2906 1245 2678  Q 984 2450 984 1813  L 984 0  L 422 0  z " transform="scale(0.015625)" />
      <path id="ArialMT-3d" d="M 3381 2694  L 356 2694  L 356 3219  L 3381 3219  L 3381 2694  z M 3381 1303  L 356 1303  L 356 1828  L 3381 1828  L 3381 1303  z " transform="scale(0.015625)" />
      <path id="ArialMT-33" d="M 269 1209  L 831 1284  Q 928 806 1161 595  Q 1394 384 1728 384  Q 2125 384 2398 659  Q 2672 934 2672 1341  Q 2672 1728 2419 1979  Q 2166 2231 1775 2231  Q 1616 2231 1378 2169  L 1441 2663  Q 1497 2656 1531 2656  Q 1891 2656 2178 2843  Q 2466 3031 2466 3422  Q 2466 3731 2256 3934  Q 2047 4138 1716 4138  Q 1388 4138 1169 3931  Q 950 3725 888 3313  L 325 3413  Q 428 3978 793 4289  Q 1159 4600 1703 4600  Q 2078 4600 2393 4439  Q 2709 4278 2876 4000  Q 3044 3722 3044 3409  Q 3044 3113 2884 2869  Q 2725 2625 2413 2481  Q 2819 2388 3044 2092  Q 3269 1797 3269 1353  Q 3269 753 2831 336  Q 2394 -81 1725 -81  Q 1122 -81 723 278  Q 325 638 269 1209  z " transform="scale(0.015625)" />
     </defs>
     <use xlink:href="#ArialMT-6e" />
     <use xlink:href="#ArialMT-3d" x="55.615234" />
     <use xlink:href="#ArialMT-33" x="114.013672" />
    </g>
    
    <g style="fill: #444443" transform="translate(0 29.152579)scale(0.09 -0.09)">
     <defs>
      <path id="ArialMT-49" d="M 597 0  L 597 4581  L 1203 4581  L 1203 0  L 597 0  z " transform="scale(0.015625)" />
      <path id="ArialMT-65" d="M 2694 1069  L 3275 997  Q 3138 488 2766 206  Q 2394 -75 1816 -75  Q 1088 -75 661 373  Q 234 822 234 1631  Q 234 2469 665 2931  Q 1097 3394 1784 3394  Q 2450 3394 2872 2941  Q 3294 2488 3294 1666  Q 3294 1616 3291 1516  L 816 1516  Q 847 969 1125 678  Q 1403 388 1819 388  Q 2128 388 2347 550  Q 2566 713 2694 1069  z M 847 1978  L 2700 1978  Q 2663 2397 2488 2606  Q 2219 2931 1791 2931  Q 1403 2931 1139 2672  Q 875 2413 847 1978  z " transform="scale(0.015625)" />
      <path id="ArialMT-72" d="M 416 0  L 416 3319  L 922 3319  L 922 2816  Q 1116 3169 1280 3281  Q 1444 3394 1641 3394  Q 1925 3394 2219 3213  L 2025 2691  Q 1819 2813 1613 2813  Q 1428 2813 1281 2702  Q 1134 2591 1072 2394  Q 978 2094 978 1738  L 978 0  L 416 0  z " transform="scale(0.015625)" />
      <path id="ArialMT-74" d="M 1650 503  L 1731 6  Q 1494 -44 1306 -44  Q 1000 -44 831 53  Q 663 150 594 308  Q 525 466 525 972  L 525 2881  L 113 2881  L 113 3319  L 525 3319  L 525 4141  L 1084 4478  L 1084 3319  L 1650 3319  L 1650 2881  L 1084 2881  L 1084 941  Q 1084 700 1114 631  Q 1144 563 1211 522  Q 1278 481 1403 481  Q 1497 481 1650 503  z " transform="scale(0.015625)" />
     </defs>
     <use xlink:href="#ArialMT-49" />
     <use xlink:href="#ArialMT-6e" x="27.783203" />
     <use xlink:href="#ArialMT-65" x="83.398438" />
     <use xlink:href="#ArialMT-72" x="139.013672" />
     <use xlink:href="#ArialMT-74" x="172.314453" />
    </g>
   </g>
  </g>
 </g>
</svg></g>

<g id="edge2" class="edge">
<title>node2-&gt;leaf4</title>
<path fill="none" stroke="#444443" stroke-width="0.3" d="M65.06,-195.72C66.01,-192.23 67.27,-187.56 68.53,-182.9" />
<polygon fill="#444443" stroke="#444443" stroke-width="0.3" points="69.88,-183.24 69.58,-179.02 67.18,-182.51 69.88,-183.24" />
</g>

<g id="node2" class="node">
<title>node7</title>
<text text-anchor="start" x="22" y="-111.9" font-family="Helvetica,sans-Serif" font-size="12.00" fill="#444443">PC 15@-0.84</text>
</g>

<g id="node3" class="node">
<title>node10</title>
<text text-anchor="start" x="108.5" y="-111.9" font-family="Helvetica,sans-Serif" font-size="12.00" fill="#444443">PC 11@0.22</text>
</g>


<g id="node11" class="node">
<title>leaf8</title>
<polygon fill="none" stroke="#444443" stroke-width="0" points="21,-56.5 0,-56.5 0,-25.5 21,-25.5 21,-56.5" />
<svg width="13px" height="23px" viewBox="0 0 18.007031 30.941329" version="1.1" preserveAspectRatio="xMinYMin meet" x="4.5" y="-52">
 <metadata>
  <rdf:RDF>
   <ns2:Work>
    <dc:type rdf:resource="http://purl.org/dc/dcmitype/StillImage" />
    <dc:date>2022-09-08T15:58:33.945836</dc:date>
    <dc:format>image/svg+xml</dc:format>
    <dc:creator>
     <ns2:Agent>
      <dc:title>Matplotlib v3.5.1, https://matplotlib.org/</dc:title>
     </ns2:Agent>
    </dc:creator>
   </ns2:Work>
  </rdf:RDF>
 </metadata>
 <defs>
  <style type="text/css">*{stroke-linejoin: round; stroke-linecap: butt}</style>
 </defs>
 <g id="figure_1">
  <g id="patch_1">
   <path d="M 0 30.941329  L 18.007031 30.941329  L 18.007031 -0  L 0 -0  L 0 30.941329  z " style="fill: none" />
  </g>
  <g id="axes_1">
   <g id="patch_2">
    <path d="M 15.345516 6.342  C 15.345516 5.228829 15.052434 4.135034 14.495849 3.171  C 13.939263 2.206966 13.13855 1.406252 12.174515 0.849667  C 11.210481 0.293081 10.116686 -0 9.003515 0  C 7.890345 0 6.796549 0.293082 5.832515 0.849667  C 4.868481 1.406252 4.067768 2.206966 3.511182 3.171  C 2.954597 4.135035 2.661516 5.22883 2.661516 6.342001  C 2.661516 7.455171 2.954597 8.548967 3.511183 9.513001  C 4.067768 10.477035 4.868482 11.277748 5.832516 11.834334  L 9.003516 6.342  L 15.345516 6.342  z " style="fill: #377eb8; stroke: #444443; stroke-width: 0.5; stroke-linejoin: miter" />
   </g>
   <g id="patch_3">
    <path d="M 5.832516 11.834334  C 6.79655 12.390919 7.890346 12.684 9.003517 12.684  C 10.116687 12.684 11.210482 12.390918 12.174516 11.834333  C 13.13855 11.277747 13.939264 10.477033 14.495849 9.512999  C 15.052434 8.548965 15.345516 7.455169 15.345516 6.341999  L 9.003516 6.342  L 5.832516 11.834334  z " style="fill: #ff7f00; stroke: #444443; stroke-width: 0.5; stroke-linejoin: miter" />
   </g>
   <g id="text_1">
    
    <g style="fill: #444443" transform="translate(1.370391 19.633391)scale(0.09 -0.09)">
     <defs>
      <path id="ArialMT-6e" d="M 422 0  L 422 3319  L 928 3319  L 928 2847  Q 1294 3394 1984 3394  Q 2284 3394 2536 3286  Q 2788 3178 2913 3003  Q 3038 2828 3088 2588  Q 3119 2431 3119 2041  L 3119 0  L 2556 0  L 2556 2019  Q 2556 2363 2490 2533  Q 2425 2703 2258 2804  Q 2091 2906 1866 2906  Q 1506 2906 1245 2678  Q 984 2450 984 1813  L 984 0  L 422 0  z " transform="scale(0.015625)" />
      <path id="ArialMT-3d" d="M 3381 2694  L 356 2694  L 356 3219  L 3381 3219  L 3381 2694  z M 3381 1303  L 356 1303  L 356 1828  L 3381 1828  L 3381 1303  z " transform="scale(0.015625)" />
      <path id="ArialMT-33" d="M 269 1209  L 831 1284  Q 928 806 1161 595  Q 1394 384 1728 384  Q 2125 384 2398 659  Q 2672 934 2672 1341  Q 2672 1728 2419 1979  Q 2166 2231 1775 2231  Q 1616 2231 1378 2169  L 1441 2663  Q 1497 2656 1531 2656  Q 1891 2656 2178 2843  Q 2466 3031 2466 3422  Q 2466 3731 2256 3934  Q 2047 4138 1716 4138  Q 1388 4138 1169 3931  Q 950 3725 888 3313  L 325 3413  Q 428 3978 793 4289  Q 1159 4600 1703 4600  Q 2078 4600 2393 4439  Q 2709 4278 2876 4000  Q 3044 3722 3044 3409  Q 3044 3113 2884 2869  Q 2725 2625 2413 2481  Q 2819 2388 3044 2092  Q 3269 1797 3269 1353  Q 3269 753 2831 336  Q 2394 -81 1725 -81  Q 1122 -81 723 278  Q 325 638 269 1209  z " transform="scale(0.015625)" />
     </defs>
     <use xlink:href="#ArialMT-6e" />
     <use xlink:href="#ArialMT-3d" x="55.615234" />
     <use xlink:href="#ArialMT-33" x="114.013672" />
    </g>
    
    <g style="fill: #444443" transform="translate(0 29.152579)scale(0.09 -0.09)">
     <defs>
      <path id="ArialMT-49" d="M 597 0  L 597 4581  L 1203 4581  L 1203 0  L 597 0  z " transform="scale(0.015625)" />
      <path id="ArialMT-65" d="M 2694 1069  L 3275 997  Q 3138 488 2766 206  Q 2394 -75 1816 -75  Q 1088 -75 661 373  Q 234 822 234 1631  Q 234 2469 665 2931  Q 1097 3394 1784 3394  Q 2450 3394 2872 2941  Q 3294 2488 3294 1666  Q 3294 1616 3291 1516  L 816 1516  Q 847 969 1125 678  Q 1403 388 1819 388  Q 2128 388 2347 550  Q 2566 713 2694 1069  z M 847 1978  L 2700 1978  Q 2663 2397 2488 2606  Q 2219 2931 1791 2931  Q 1403 2931 1139 2672  Q 875 2413 847 1978  z " transform="scale(0.015625)" />
      <path id="ArialMT-72" d="M 416 0  L 416 3319  L 922 3319  L 922 2816  Q 1116 3169 1280 3281  Q 1444 3394 1641 3394  Q 1925 3394 2219 3213  L 2025 2691  Q 1819 2813 1613 2813  Q 1428 2813 1281 2702  Q 1134 2591 1072 2394  Q 978 2094 978 1738  L 978 0  L 416 0  z " transform="scale(0.015625)" />
      <path id="ArialMT-74" d="M 1650 503  L 1731 6  Q 1494 -44 1306 -44  Q 1000 -44 831 53  Q 663 150 594 308  Q 525 466 525 972  L 525 2881  L 113 2881  L 113 3319  L 525 3319  L 525 4141  L 1084 4478  L 1084 3319  L 1650 3319  L 1650 2881  L 1084 2881  L 1084 941  Q 1084 700 1114 631  Q 1144 563 1211 522  Q 1278 481 1403 481  Q 1497 481 1650 503  z " transform="scale(0.015625)" />
     </defs>
     <use xlink:href="#ArialMT-49" />
     <use xlink:href="#ArialMT-6e" x="27.783203" />
     <use xlink:href="#ArialMT-65" x="83.398438" />
     <use xlink:href="#ArialMT-72" x="139.013672" />
     <use xlink:href="#ArialMT-74" x="172.314453" />
    </g>
   </g>
  </g>
 </g>
</svg></g>

<g id="edge4" class="edge">
<title>node7-&gt;leaf8</title>
<path fill="none" stroke="#444443" stroke-width="0.3" d="M54.73,-108.35C47.91,-98.12 33.24,-76.11 22.66,-60.24" />
<polygon fill="#444443" stroke="#444443" stroke-width="0.3" points="23.72,-59.31 20.34,-56.75 21.39,-60.86 23.72,-59.31" />
</g>

<g id="node12" class="node">
<title>leaf9</title>
<polygon fill="none" stroke="#444443" stroke-width="0" points="102,-82 35,-82 35,0 102,0 102,-82" />
<svg width="59px" height="74px" viewBox="0 0 78.52 99.410769" version="1.1" preserveAspectRatio="xMinYMin meet" x="39.5" y="-78">
 <metadata>
  <rdf:RDF>
   <ns2:Work>
    <dc:type rdf:resource="http://purl.org/dc/dcmitype/StillImage" />
    <dc:date>2022-09-08T15:58:34.015487</dc:date>
    <dc:format>image/svg+xml</dc:format>
    <dc:creator>
     <ns2:Agent>
      <dc:title>Matplotlib v3.5.1, https://matplotlib.org/</dc:title>
     </ns2:Agent>
    </dc:creator>
   </ns2:Work>
  </rdf:RDF>
 </metadata>
 <defs>
  <style type="text/css">*{stroke-linejoin: round; stroke-linecap: butt}</style>
 </defs>
 <g id="figure_1">
  <g id="patch_1">
   <path d="M -0 99.410769  L 78.52 99.410769  L 78.52 0  L -0 0  L -0 99.410769  z " style="fill: none" />
  </g>
  <g id="axes_1">
   <g id="patch_2">
    <path d="M 78.52 39.26  C 78.52 34.104424 77.504464 28.99898 75.53151 24.235848  C 73.558557 19.472717 70.666555 15.14453 67.021012 11.498988  C 63.37547 7.853445 59.047283 4.961443 54.284152 2.98849  C 49.52102 1.015536 44.415576 0 39.26 0  C 34.104424 0 28.99898 1.015536 24.235848 2.98849  C 19.472717 4.961443 15.14453 7.853445 11.498988 11.498988  C 7.853445 15.14453 4.961443 19.472717 2.98849 24.235848  C 1.015536 28.99898 0 34.104424 0 39.26  C 0 44.415576 1.015536 49.52102 2.98849 54.284152  C 4.961443 59.047283 7.853445 63.37547 11.498988 67.021012  C 15.14453 70.666555 19.472717 73.558557 24.235848 75.53151  C 28.99898 77.504464 34.104424 78.52 39.26 78.52  C 44.415576 78.52 49.52102 77.504464 54.284152 75.53151  C 59.047283 73.558557 63.37547 70.666555 67.021012 67.021012  C 70.666555 63.37547 73.558557 59.047283 75.53151 54.284152  C 77.504464 49.52102 78.52 44.415576 78.52 39.26  M 39.26 39.26  M 78.52 39.26  z " style="fill: #377eb8; stroke: #444443; stroke-width: 0.5; stroke-linejoin: miter" />
   </g>
   <g id="text_1">
    
    <g style="fill: #444443" transform="translate(29.124453 88.102831)scale(0.09 -0.09)">
     <defs>
      <path id="ArialMT-6e" d="M 422 0  L 422 3319  L 928 3319  L 928 2847  Q 1294 3394 1984 3394  Q 2284 3394 2536 3286  Q 2788 3178 2913 3003  Q 3038 2828 3088 2588  Q 3119 2431 3119 2041  L 3119 0  L 2556 0  L 2556 2019  Q 2556 2363 2490 2533  Q 2425 2703 2258 2804  Q 2091 2906 1866 2906  Q 1506 2906 1245 2678  Q 984 2450 984 1813  L 984 0  L 422 0  z " transform="scale(0.015625)" />
      <path id="ArialMT-3d" d="M 3381 2694  L 356 2694  L 356 3219  L 3381 3219  L 3381 2694  z M 3381 1303  L 356 1303  L 356 1828  L 3381 1828  L 3381 1303  z " transform="scale(0.015625)" />
      <path id="ArialMT-37" d="M 303 3981  L 303 4522  L 3269 4522  L 3269 4084  Q 2831 3619 2401 2847  Q 1972 2075 1738 1259  Q 1569 684 1522 0  L 944 0  Q 953 541 1156 1306  Q 1359 2072 1739 2783  Q 2119 3494 2547 3981  L 303 3981  z " transform="scale(0.015625)" />
      <path id="ArialMT-32" d="M 3222 541  L 3222 0  L 194 0  Q 188 203 259 391  Q 375 700 629 1000  Q 884 1300 1366 1694  Q 2113 2306 2375 2664  Q 2638 3022 2638 3341  Q 2638 3675 2398 3904  Q 2159 4134 1775 4134  Q 1369 4134 1125 3890  Q 881 3647 878 3216  L 300 3275  Q 359 3922 746 4261  Q 1134 4600 1788 4600  Q 2447 4600 2831 4234  Q 3216 3869 3216 3328  Q 3216 3053 3103 2787  Q 2991 2522 2730 2228  Q 2469 1934 1863 1422  Q 1356 997 1212 845  Q 1069 694 975 541  L 3222 541  z " transform="scale(0.015625)" />
     </defs>
     <use xlink:href="#ArialMT-6e" />
     <use xlink:href="#ArialMT-3d" x="55.615234" />
     <use xlink:href="#ArialMT-37" x="114.013672" />
     <use xlink:href="#ArialMT-32" x="169.628906" />
    </g>
    
    <g style="fill: #444443" transform="translate(30.256484 97.622019)scale(0.09 -0.09)">
     <defs>
      <path id="ArialMT-49" d="M 597 0  L 597 4581  L 1203 4581  L 1203 0  L 597 0  z " transform="scale(0.015625)" />
      <path id="ArialMT-65" d="M 2694 1069  L 3275 997  Q 3138 488 2766 206  Q 2394 -75 1816 -75  Q 1088 -75 661 373  Q 234 822 234 1631  Q 234 2469 665 2931  Q 1097 3394 1784 3394  Q 2450 3394 2872 2941  Q 3294 2488 3294 1666  Q 3294 1616 3291 1516  L 816 1516  Q 847 969 1125 678  Q 1403 388 1819 388  Q 2128 388 2347 550  Q 2566 713 2694 1069  z M 847 1978  L 2700 1978  Q 2663 2397 2488 2606  Q 2219 2931 1791 2931  Q 1403 2931 1139 2672  Q 875 2413 847 1978  z " transform="scale(0.015625)" />
      <path id="ArialMT-72" d="M 416 0  L 416 3319  L 922 3319  L 922 2816  Q 1116 3169 1280 3281  Q 1444 3394 1641 3394  Q 1925 3394 2219 3213  L 2025 2691  Q 1819 2813 1613 2813  Q 1428 2813 1281 2702  Q 1134 2591 1072 2394  Q 978 2094 978 1738  L 978 0  L 416 0  z " transform="scale(0.015625)" />
      <path id="ArialMT-74" d="M 1650 503  L 1731 6  Q 1494 -44 1306 -44  Q 1000 -44 831 53  Q 663 150 594 308  Q 525 466 525 972  L 525 2881  L 113 2881  L 113 3319  L 525 3319  L 525 4141  L 1084 4478  L 1084 3319  L 1650 3319  L 1650 2881  L 1084 2881  L 1084 941  Q 1084 700 1114 631  Q 1144 563 1211 522  Q 1278 481 1403 481  Q 1497 481 1650 503  z " transform="scale(0.015625)" />
     </defs>
     <use xlink:href="#ArialMT-49" />
     <use xlink:href="#ArialMT-6e" x="27.783203" />
     <use xlink:href="#ArialMT-65" x="83.398438" />
     <use xlink:href="#ArialMT-72" x="139.013672" />
     <use xlink:href="#ArialMT-74" x="172.314453" />
    </g>
   </g>
  </g>
 </g>
</svg></g>

<g id="edge5" class="edge">
<title>node7-&gt;leaf9</title>
<path fill="none" stroke="#444443" stroke-width="0.3" d="M59.28,-108.35C59.99,-103.28 61.1,-95.32 62.3,-86.64" />
<polygon fill="#444443" stroke="#444443" stroke-width="0.3" points="63.73,-86.49 62.9,-82.33 60.96,-86.1 63.73,-86.49" />
</g>

<g id="node13" class="node">
<title>leaf11</title>
<polygon fill="none" stroke="#444443" stroke-width="0" points="149,-56.5 110,-56.5 110,-25.5 149,-25.5 149,-56.5" />
<svg width="31px" height="23px" viewBox="0 0 41.516719 30.941329" version="1.1" preserveAspectRatio="xMinYMin meet" x="114.5" y="-52">
 <metadata>
  <rdf:RDF>
   <ns2:Work>
    <dc:type rdf:resource="http://purl.org/dc/dcmitype/StillImage" />
    <dc:date>2022-09-08T15:58:34.081013</dc:date>
    <dc:format>image/svg+xml</dc:format>
    <dc:creator>
     <ns2:Agent>
      <dc:title>Matplotlib v3.5.1, https://matplotlib.org/</dc:title>
     </ns2:Agent>
    </dc:creator>
   </ns2:Work>
  </rdf:RDF>
 </metadata>
 <defs>
  <style type="text/css">*{stroke-linejoin: round; stroke-linecap: butt}</style>
 </defs>
 <g id="figure_1">
  <g id="patch_1">
   <path d="M 0 30.941329  L 41.516719 30.941329  L 41.516719 -0  L 0 -0  L 0 30.941329  z " style="fill: none" />
  </g>
  <g id="axes_1">
   <g id="patch_2">
    <path d="M 27.100359 6.342  C 27.100359 5.509176 26.936311 4.684451 26.617603 3.915022  C 26.298895 3.145593 25.831726 2.446424 25.242831 1.857529  C 24.653935 1.268633 23.954767 0.801464 23.185338 0.482756  C 22.415909 0.164048 21.591183 0 20.758359 0  C 19.925536 0 19.10081 0.164048 18.331381 0.482756  C 17.561952 0.801464 16.862784 1.268633 16.273888 1.857529  C 15.684993 2.446424 15.217823 3.145593 14.899115 3.915022  C 14.580408 4.684451 14.416359 5.509176 14.416359 6.342  C 14.416359 7.174824 14.580408 7.999549 14.899115 8.768978  C 15.217823 9.538407 15.684993 10.237576 16.273888 10.826471  C 16.862784 11.415367 17.561952 11.882536 18.331381 12.201244  C 19.10081 12.519952 19.925536 12.684 20.758359 12.684  C 21.591183 12.684 22.415909 12.519952 23.185338 12.201244  C 23.954767 11.882536 24.653935 11.415367 25.242831 10.826471  C 25.831726 10.237576 26.298895 9.538407 26.617603 8.768978  C 26.936311 7.999549 27.100359 7.174824 27.100359 6.342  M 20.758359 6.342  M 27.100359 6.342  z " style="fill: #ff7f00; stroke: #444443; stroke-width: 0.5; stroke-linejoin: miter" />
   </g>
   <g id="text_1">
    
    <g style="fill: #444443" transform="translate(13.125234 19.633391)scale(0.09 -0.09)">
     <defs>
      <path id="ArialMT-6e" d="M 422 0  L 422 3319  L 928 3319  L 928 2847  Q 1294 3394 1984 3394  Q 2284 3394 2536 3286  Q 2788 3178 2913 3003  Q 3038 2828 3088 2588  Q 3119 2431 3119 2041  L 3119 0  L 2556 0  L 2556 2019  Q 2556 2363 2490 2533  Q 2425 2703 2258 2804  Q 2091 2906 1866 2906  Q 1506 2906 1245 2678  Q 984 2450 984 1813  L 984 0  L 422 0  z " transform="scale(0.015625)" />
      <path id="ArialMT-3d" d="M 3381 2694  L 356 2694  L 356 3219  L 3381 3219  L 3381 2694  z M 3381 1303  L 356 1303  L 356 1828  L 3381 1828  L 3381 1303  z " transform="scale(0.015625)" />
      <path id="ArialMT-33" d="M 269 1209  L 831 1284  Q 928 806 1161 595  Q 1394 384 1728 384  Q 2125 384 2398 659  Q 2672 934 2672 1341  Q 2672 1728 2419 1979  Q 2166 2231 1775 2231  Q 1616 2231 1378 2169  L 1441 2663  Q 1497 2656 1531 2656  Q 1891 2656 2178 2843  Q 2466 3031 2466 3422  Q 2466 3731 2256 3934  Q 2047 4138 1716 4138  Q 1388 4138 1169 3931  Q 950 3725 888 3313  L 325 3413  Q 428 3978 793 4289  Q 1159 4600 1703 4600  Q 2078 4600 2393 4439  Q 2709 4278 2876 4000  Q 3044 3722 3044 3409  Q 3044 3113 2884 2869  Q 2725 2625 2413 2481  Q 2819 2388 3044 2092  Q 3269 1797 3269 1353  Q 3269 753 2831 336  Q 2394 -81 1725 -81  Q 1122 -81 723 278  Q 325 638 269 1209  z " transform="scale(0.015625)" />
     </defs>
     <use xlink:href="#ArialMT-6e" />
     <use xlink:href="#ArialMT-3d" x="55.615234" />
     <use xlink:href="#ArialMT-33" x="114.013672" />
    </g>
    
    <g style="fill: #444443" transform="translate(-0 29.152579)scale(0.09 -0.09)">
     <defs>
      <path id="ArialMT-49" d="M 597 0  L 597 4581  L 1203 4581  L 1203 0  L 597 0  z " transform="scale(0.015625)" />
      <path id="ArialMT-74" d="M 1650 503  L 1731 6  Q 1494 -44 1306 -44  Q 1000 -44 831 53  Q 663 150 594 308  Q 525 466 525 972  L 525 2881  L 113 2881  L 113 3319  L 525 3319  L 525 4141  L 1084 4478  L 1084 3319  L 1650 3319  L 1650 2881  L 1084 2881  L 1084 941  Q 1084 700 1114 631  Q 1144 563 1211 522  Q 1278 481 1403 481  Q 1497 481 1650 503  z " transform="scale(0.015625)" />
      <path id="ArialMT-65" d="M 2694 1069  L 3275 997  Q 3138 488 2766 206  Q 2394 -75 1816 -75  Q 1088 -75 661 373  Q 234 822 234 1631  Q 234 2469 665 2931  Q 1097 3394 1784 3394  Q 2450 3394 2872 2941  Q 3294 2488 3294 1666  Q 3294 1616 3291 1516  L 816 1516  Q 847 969 1125 678  Q 1403 388 1819 388  Q 2128 388 2347 550  Q 2566 713 2694 1069  z M 847 1978  L 2700 1978  Q 2663 2397 2488 2606  Q 2219 2931 1791 2931  Q 1403 2931 1139 2672  Q 875 2413 847 1978  z " transform="scale(0.015625)" />
      <path id="ArialMT-72" d="M 416 0  L 416 3319  L 922 3319  L 922 2816  Q 1116 3169 1280 3281  Q 1444 3394 1641 3394  Q 1925 3394 2219 3213  L 2025 2691  Q 1819 2813 1613 2813  Q 1428 2813 1281 2702  Q 1134 2591 1072 2394  Q 978 2094 978 1738  L 978 0  L 416 0  z " transform="scale(0.015625)" />
      <path id="ArialMT-61" d="M 2588 409  Q 2275 144 1986 34  Q 1697 -75 1366 -75  Q 819 -75 525 192  Q 231 459 231 875  Q 231 1119 342 1320  Q 453 1522 633 1644  Q 813 1766 1038 1828  Q 1203 1872 1538 1913  Q 2219 1994 2541 2106  Q 2544 2222 2544 2253  Q 2544 2597 2384 2738  Q 2169 2928 1744 2928  Q 1347 2928 1158 2789  Q 969 2650 878 2297  L 328 2372  Q 403 2725 575 2942  Q 747 3159 1072 3276  Q 1397 3394 1825 3394  Q 2250 3394 2515 3294  Q 2781 3194 2906 3042  Q 3031 2891 3081 2659  Q 3109 2516 3109 2141  L 3109 1391  Q 3109 606 3145 398  Q 3181 191 3288 0  L 2700 0  Q 2613 175 2588 409  z M 2541 1666  Q 2234 1541 1622 1453  Q 1275 1403 1131 1340  Q 988 1278 909 1158  Q 831 1038 831 891  Q 831 666 1001 516  Q 1172 366 1500 366  Q 1825 366 2078 508  Q 2331 650 2450 897  Q 2541 1088 2541 1459  L 2541 1666  z " transform="scale(0.015625)" />
      <path id="ArialMT-63" d="M 2588 1216  L 3141 1144  Q 3050 572 2676 248  Q 2303 -75 1759 -75  Q 1078 -75 664 370  Q 250 816 250 1647  Q 250 2184 428 2587  Q 606 2991 970 3192  Q 1334 3394 1763 3394  Q 2303 3394 2647 3120  Q 2991 2847 3088 2344  L 2541 2259  Q 2463 2594 2264 2762  Q 2066 2931 1784 2931  Q 1359 2931 1093 2626  Q 828 2322 828 1663  Q 828 994 1084 691  Q 1341 388 1753 388  Q 2084 388 2306 591  Q 2528 794 2588 1216  z " transform="scale(0.015625)" />
      <path id="ArialMT-69" d="M 425 3934  L 425 4581  L 988 4581  L 988 3934  L 425 3934  z M 425 0  L 425 3319  L 988 3319  L 988 0  L 425 0  z " transform="scale(0.015625)" />
      <path id="ArialMT-76" d="M 1344 0  L 81 3319  L 675 3319  L 1388 1331  Q 1503 1009 1600 663  Q 1675 925 1809 1294  L 2547 3319  L 3125 3319  L 1869 0  L 1344 0  z " transform="scale(0.015625)" />
     </defs>
     <use xlink:href="#ArialMT-49" />
     <use xlink:href="#ArialMT-6e" x="27.783203" />
     <use xlink:href="#ArialMT-74" x="83.398438" />
     <use xlink:href="#ArialMT-65" x="111.181641" />
     <use xlink:href="#ArialMT-72" x="166.796875" />
     <use xlink:href="#ArialMT-61" x="200.097656" />
     <use xlink:href="#ArialMT-63" x="255.712891" />
     <use xlink:href="#ArialMT-74" x="305.712891" />
     <use xlink:href="#ArialMT-69" x="333.496094" />
     <use xlink:href="#ArialMT-76" x="355.712891" />
     <use xlink:href="#ArialMT-65" x="405.712891" />
    </g>
   </g>
  </g>
 </g>
</svg></g>

<g id="edge7" class="edge">
<title>node10-&gt;leaf11</title>
<path fill="none" stroke="#444443" stroke-width="0.3" d="M141.48,-108.35C139.66,-98.29 135.79,-76.85 132.94,-61.05" />
<polygon fill="#444443" stroke="#444443" stroke-width="0.3" points="134.25,-60.44 132.16,-56.75 131.5,-60.94 134.25,-60.44" />
</g>

<g id="node14" class="node">
<title>leaf12</title>
<polygon fill="none" stroke="#444443" stroke-width="0" points="184,-57 163,-57 163,-25 184,-25 184,-57" />
<svg width="13px" height="24px" viewBox="0 0 18.007031 32.197649" version="1.1" preserveAspectRatio="xMinYMin meet" x="167.5" y="-53">
 <metadata>
  <rdf:RDF>
   <ns2:Work>
    <dc:type rdf:resource="http://purl.org/dc/dcmitype/StillImage" />
    <dc:date>2022-09-08T15:58:34.177989</dc:date>
    <dc:format>image/svg+xml</dc:format>
    <dc:creator>
     <ns2:Agent>
      <dc:title>Matplotlib v3.5.1, https://matplotlib.org/</dc:title>
     </ns2:Agent>
    </dc:creator>
   </ns2:Work>
  </rdf:RDF>
 </metadata>
 <defs>
  <style type="text/css">*{stroke-linejoin: round; stroke-linecap: butt}</style>
 </defs>
 <g id="figure_1">
  <g id="patch_1">
   <path d="M 0 32.197649  L 18.007031 32.197649  L 18.007031 0  L 0 0  L 0 32.197649  z " style="fill: none" />
  </g>
  <g id="axes_1">
   <g id="patch_2">
    <path d="M 15.949516 6.946  C 15.949516 6.03386 15.769844 5.130589 15.420783 4.287881  C 15.071722 3.445173 14.56006 2.679417 13.915079 2.034436  C 13.270099 1.389456 12.504343 0.877794 11.661635 0.528733  C 10.818927 0.179672 9.915656 0 9.003516 0  C 8.091375 0 7.188104 0.179672 6.345397 0.528733  C 5.502689 0.877794 4.736933 1.389456 4.091952 2.034436  C 3.446971 2.679417 2.935309 3.445173 2.586248 4.287881  C 2.237187 5.130589 2.057516 6.03386 2.057516 6.946  C 2.057516 7.85814 2.237187 8.761411 2.586248 9.604119  C 2.935309 10.446827 3.446971 11.212583 4.091952 11.857564  C 4.736933 12.502544 5.502689 13.014206 6.345397 13.363267  C 7.188104 13.712328 8.091375 13.892 9.003516 13.892  C 9.915656 13.892 10.818927 13.712328 11.661635 13.363267  C 12.504343 13.014206 13.270099 12.502544 13.915079 11.857564  C 14.56006 11.212583 15.071722 10.446827 15.420783 9.604119  C 15.769844 8.761411 15.949516 7.85814 15.949516 6.946  M 9.003516 6.946  M 15.949516 6.946  z " style="fill: #377eb8; stroke: #444443; stroke-width: 0.5; stroke-linejoin: miter" />
   </g>
   <g id="text_1">
    
    <g style="fill: #444443" transform="translate(1.370391 20.889711)scale(0.09 -0.09)">
     <defs>
      <path id="ArialMT-6e" d="M 422 0  L 422 3319  L 928 3319  L 928 2847  Q 1294 3394 1984 3394  Q 2284 3394 2536 3286  Q 2788 3178 2913 3003  Q 3038 2828 3088 2588  Q 3119 2431 3119 2041  L 3119 0  L 2556 0  L 2556 2019  Q 2556 2363 2490 2533  Q 2425 2703 2258 2804  Q 2091 2906 1866 2906  Q 1506 2906 1245 2678  Q 984 2450 984 1813  L 984 0  L 422 0  z " transform="scale(0.015625)" />
      <path id="ArialMT-3d" d="M 3381 2694  L 356 2694  L 356 3219  L 3381 3219  L 3381 2694  z M 3381 1303  L 356 1303  L 356 1828  L 3381 1828  L 3381 1303  z " transform="scale(0.015625)" />
      <path id="ArialMT-34" d="M 2069 0  L 2069 1097  L 81 1097  L 81 1613  L 2172 4581  L 2631 4581  L 2631 1613  L 3250 1613  L 3250 1097  L 2631 1097  L 2631 0  L 2069 0  z M 2069 1613  L 2069 3678  L 634 1613  L 2069 1613  z " transform="scale(0.015625)" />
     </defs>
     <use xlink:href="#ArialMT-6e" />
     <use xlink:href="#ArialMT-3d" x="55.615234" />
     <use xlink:href="#ArialMT-34" x="114.013672" />
    </g>
    
    <g style="fill: #444443" transform="translate(-0 30.408899)scale(0.09 -0.09)">
     <defs>
      <path id="ArialMT-49" d="M 597 0  L 597 4581  L 1203 4581  L 1203 0  L 597 0  z " transform="scale(0.015625)" />
      <path id="ArialMT-65" d="M 2694 1069  L 3275 997  Q 3138 488 2766 206  Q 2394 -75 1816 -75  Q 1088 -75 661 373  Q 234 822 234 1631  Q 234 2469 665 2931  Q 1097 3394 1784 3394  Q 2450 3394 2872 2941  Q 3294 2488 3294 1666  Q 3294 1616 3291 1516  L 816 1516  Q 847 969 1125 678  Q 1403 388 1819 388  Q 2128 388 2347 550  Q 2566 713 2694 1069  z M 847 1978  L 2700 1978  Q 2663 2397 2488 2606  Q 2219 2931 1791 2931  Q 1403 2931 1139 2672  Q 875 2413 847 1978  z " transform="scale(0.015625)" />
      <path id="ArialMT-72" d="M 416 0  L 416 3319  L 922 3319  L 922 2816  Q 1116 3169 1280 3281  Q 1444 3394 1641 3394  Q 1925 3394 2219 3213  L 2025 2691  Q 1819 2813 1613 2813  Q 1428 2813 1281 2702  Q 1134 2591 1072 2394  Q 978 2094 978 1738  L 978 0  L 416 0  z " transform="scale(0.015625)" />
      <path id="ArialMT-74" d="M 1650 503  L 1731 6  Q 1494 -44 1306 -44  Q 1000 -44 831 53  Q 663 150 594 308  Q 525 466 525 972  L 525 2881  L 113 2881  L 113 3319  L 525 3319  L 525 4141  L 1084 4478  L 1084 3319  L 1650 3319  L 1650 2881  L 1084 2881  L 1084 941  Q 1084 700 1114 631  Q 1144 563 1211 522  Q 1278 481 1403 481  Q 1497 481 1650 503  z " transform="scale(0.015625)" />
     </defs>
     <use xlink:href="#ArialMT-49" />
     <use xlink:href="#ArialMT-6e" x="27.783203" />
     <use xlink:href="#ArialMT-65" x="83.398438" />
     <use xlink:href="#ArialMT-72" x="139.013672" />
     <use xlink:href="#ArialMT-74" x="172.314453" />
    </g>
   </g>
  </g>
 </g>
</svg></g>

<g id="edge8" class="edge">
<title>node10-&gt;leaf12</title>
<path fill="none" stroke="#444443" stroke-width="0.3" d="M144.93,-108.35C149.27,-98.27 158.54,-76.74 165.35,-60.93" />
<polygon fill="#444443" stroke="#444443" stroke-width="0.3" points="166.73,-61.27 167.02,-57.04 164.15,-60.16 166.73,-61.27" />
</g>

<g id="node4" class="node">
<title>node6</title>
<text text-anchor="start" x="101" y="-160.4" font-family="Helvetica,sans-Serif" font-size="12.00" fill="#444443">PC 9@1.03</text>
</g>

<g id="edge10" class="edge">
<title>node6-&gt;node7</title>
<path fill="none" stroke="#444443" stroke-width="0.3" d="M123.72,-156.98C110.59,-148.73 85.79,-133.15 70.84,-123.76" />
<polygon fill="#444443" stroke="#444443" stroke-width="0.3" points="71.4,-122.45 67.27,-121.51 69.91,-124.82 71.4,-122.45" />
</g>

<g id="edge11" class="edge">
<title>node6-&gt;node10</title>
<path fill="none" stroke="#444443" stroke-width="0.3" d="M133.73,-156.8C135.39,-149.06 138.39,-135.12 140.41,-125.71" />
<polygon fill="#444443" stroke="#444443" stroke-width="0.3" points="141.79,-125.95 141.26,-121.75 139.05,-125.36 141.79,-125.95" />
</g>

<g id="node5" class="node">
<title>node13</title>
<text text-anchor="start" x="177.5" y="-160.4" font-family="Helvetica,sans-Serif" font-size="12.00" fill="#444443">PC 11@-0.65</text>
</g>


<g id="node15" class="node">
<title>leaf14</title>
<polygon fill="none" stroke="#444443" stroke-width="0" points="225,-130.5 186,-130.5 186,-99.5 225,-99.5 225,-130.5" />
<svg width="31px" height="23px" viewBox="0 0 41.516719 30.941329" version="1.1" preserveAspectRatio="xMinYMin meet" x="190.5" y="-126">
 <metadata>
  <rdf:RDF>
   <ns2:Work>
    <dc:type rdf:resource="http://purl.org/dc/dcmitype/StillImage" />
    <dc:date>2022-09-08T15:58:34.254903</dc:date>
    <dc:format>image/svg+xml</dc:format>
    <dc:creator>
     <ns2:Agent>
      <dc:title>Matplotlib v3.5.1, https://matplotlib.org/</dc:title>
     </ns2:Agent>
    </dc:creator>
   </ns2:Work>
  </rdf:RDF>
 </metadata>
 <defs>
  <style type="text/css">*{stroke-linejoin: round; stroke-linecap: butt}</style>
 </defs>
 <g id="figure_1">
  <g id="patch_1">
   <path d="M 0 30.941329  L 41.516719 30.941329  L 41.516719 -0  L 0 -0  L 0 30.941329  z " style="fill: none" />
  </g>
  <g id="axes_1">
   <g id="patch_2">
    <path d="M 27.100359 6.342  C 27.100359 5.509176 26.936311 4.684451 26.617603 3.915022  C 26.298895 3.145593 25.831726 2.446424 25.242831 1.857529  C 24.653935 1.268633 23.954767 0.801464 23.185338 0.482756  C 22.415909 0.164048 21.591183 0 20.758359 0  C 19.925536 0 19.10081 0.164048 18.331381 0.482756  C 17.561952 0.801464 16.862784 1.268633 16.273888 1.857529  C 15.684993 2.446424 15.217823 3.145593 14.899115 3.915022  C 14.580408 4.684451 14.416359 5.509176 14.416359 6.342  C 14.416359 7.174824 14.580408 7.999549 14.899115 8.768978  C 15.217823 9.538407 15.684993 10.237576 16.273888 10.826471  C 16.862784 11.415367 17.561952 11.882536 18.331381 12.201244  C 19.10081 12.519952 19.925536 12.684 20.758359 12.684  C 21.591183 12.684 22.415909 12.519952 23.185338 12.201244  C 23.954767 11.882536 24.653935 11.415367 25.242831 10.826471  C 25.831726 10.237576 26.298895 9.538407 26.617603 8.768978  C 26.936311 7.999549 27.100359 7.174824 27.100359 6.342  M 20.758359 6.342  M 27.100359 6.342  z " style="fill: #ff7f00; stroke: #444443; stroke-width: 0.5; stroke-linejoin: miter" />
   </g>
   <g id="text_1">
    
    <g style="fill: #444443" transform="translate(13.125234 19.633391)scale(0.09 -0.09)">
     <defs>
      <path id="ArialMT-6e" d="M 422 0  L 422 3319  L 928 3319  L 928 2847  Q 1294 3394 1984 3394  Q 2284 3394 2536 3286  Q 2788 3178 2913 3003  Q 3038 2828 3088 2588  Q 3119 2431 3119 2041  L 3119 0  L 2556 0  L 2556 2019  Q 2556 2363 2490 2533  Q 2425 2703 2258 2804  Q 2091 2906 1866 2906  Q 1506 2906 1245 2678  Q 984 2450 984 1813  L 984 0  L 422 0  z " transform="scale(0.015625)" />
      <path id="ArialMT-3d" d="M 3381 2694  L 356 2694  L 356 3219  L 3381 3219  L 3381 2694  z M 3381 1303  L 356 1303  L 356 1828  L 3381 1828  L 3381 1303  z " transform="scale(0.015625)" />
      <path id="ArialMT-33" d="M 269 1209  L 831 1284  Q 928 806 1161 595  Q 1394 384 1728 384  Q 2125 384 2398 659  Q 2672 934 2672 1341  Q 2672 1728 2419 1979  Q 2166 2231 1775 2231  Q 1616 2231 1378 2169  L 1441 2663  Q 1497 2656 1531 2656  Q 1891 2656 2178 2843  Q 2466 3031 2466 3422  Q 2466 3731 2256 3934  Q 2047 4138 1716 4138  Q 1388 4138 1169 3931  Q 950 3725 888 3313  L 325 3413  Q 428 3978 793 4289  Q 1159 4600 1703 4600  Q 2078 4600 2393 4439  Q 2709 4278 2876 4000  Q 3044 3722 3044 3409  Q 3044 3113 2884 2869  Q 2725 2625 2413 2481  Q 2819 2388 3044 2092  Q 3269 1797 3269 1353  Q 3269 753 2831 336  Q 2394 -81 1725 -81  Q 1122 -81 723 278  Q 325 638 269 1209  z " transform="scale(0.015625)" />
     </defs>
     <use xlink:href="#ArialMT-6e" />
     <use xlink:href="#ArialMT-3d" x="55.615234" />
     <use xlink:href="#ArialMT-33" x="114.013672" />
    </g>
    
    <g style="fill: #444443" transform="translate(-0 29.152579)scale(0.09 -0.09)">
     <defs>
      <path id="ArialMT-49" d="M 597 0  L 597 4581  L 1203 4581  L 1203 0  L 597 0  z " transform="scale(0.015625)" />
      <path id="ArialMT-74" d="M 1650 503  L 1731 6  Q 1494 -44 1306 -44  Q 1000 -44 831 53  Q 663 150 594 308  Q 525 466 525 972  L 525 2881  L 113 2881  L 113 3319  L 525 3319  L 525 4141  L 1084 4478  L 1084 3319  L 1650 3319  L 1650 2881  L 1084 2881  L 1084 941  Q 1084 700 1114 631  Q 1144 563 1211 522  Q 1278 481 1403 481  Q 1497 481 1650 503  z " transform="scale(0.015625)" />
      <path id="ArialMT-65" d="M 2694 1069  L 3275 997  Q 3138 488 2766 206  Q 2394 -75 1816 -75  Q 1088 -75 661 373  Q 234 822 234 1631  Q 234 2469 665 2931  Q 1097 3394 1784 3394  Q 2450 3394 2872 2941  Q 3294 2488 3294 1666  Q 3294 1616 3291 1516  L 816 1516  Q 847 969 1125 678  Q 1403 388 1819 388  Q 2128 388 2347 550  Q 2566 713 2694 1069  z M 847 1978  L 2700 1978  Q 2663 2397 2488 2606  Q 2219 2931 1791 2931  Q 1403 2931 1139 2672  Q 875 2413 847 1978  z " transform="scale(0.015625)" />
      <path id="ArialMT-72" d="M 416 0  L 416 3319  L 922 3319  L 922 2816  Q 1116 3169 1280 3281  Q 1444 3394 1641 3394  Q 1925 3394 2219 3213  L 2025 2691  Q 1819 2813 1613 2813  Q 1428 2813 1281 2702  Q 1134 2591 1072 2394  Q 978 2094 978 1738  L 978 0  L 416 0  z " transform="scale(0.015625)" />
      <path id="ArialMT-61" d="M 2588 409  Q 2275 144 1986 34  Q 1697 -75 1366 -75  Q 819 -75 525 192  Q 231 459 231 875  Q 231 1119 342 1320  Q 453 1522 633 1644  Q 813 1766 1038 1828  Q 1203 1872 1538 1913  Q 2219 1994 2541 2106  Q 2544 2222 2544 2253  Q 2544 2597 2384 2738  Q 2169 2928 1744 2928  Q 1347 2928 1158 2789  Q 969 2650 878 2297  L 328 2372  Q 403 2725 575 2942  Q 747 3159 1072 3276  Q 1397 3394 1825 3394  Q 2250 3394 2515 3294  Q 2781 3194 2906 3042  Q 3031 2891 3081 2659  Q 3109 2516 3109 2141  L 3109 1391  Q 3109 606 3145 398  Q 3181 191 3288 0  L 2700 0  Q 2613 175 2588 409  z M 2541 1666  Q 2234 1541 1622 1453  Q 1275 1403 1131 1340  Q 988 1278 909 1158  Q 831 1038 831 891  Q 831 666 1001 516  Q 1172 366 1500 366  Q 1825 366 2078 508  Q 2331 650 2450 897  Q 2541 1088 2541 1459  L 2541 1666  z " transform="scale(0.015625)" />
      <path id="ArialMT-63" d="M 2588 1216  L 3141 1144  Q 3050 572 2676 248  Q 2303 -75 1759 -75  Q 1078 -75 664 370  Q 250 816 250 1647  Q 250 2184 428 2587  Q 606 2991 970 3192  Q 1334 3394 1763 3394  Q 2303 3394 2647 3120  Q 2991 2847 3088 2344  L 2541 2259  Q 2463 2594 2264 2762  Q 2066 2931 1784 2931  Q 1359 2931 1093 2626  Q 828 2322 828 1663  Q 828 994 1084 691  Q 1341 388 1753 388  Q 2084 388 2306 591  Q 2528 794 2588 1216  z " transform="scale(0.015625)" />
      <path id="ArialMT-69" d="M 425 3934  L 425 4581  L 988 4581  L 988 3934  L 425 3934  z M 425 0  L 425 3319  L 988 3319  L 988 0  L 425 0  z " transform="scale(0.015625)" />
      <path id="ArialMT-76" d="M 1344 0  L 81 3319  L 675 3319  L 1388 1331  Q 1503 1009 1600 663  Q 1675 925 1809 1294  L 2547 3319  L 3125 3319  L 1869 0  L 1344 0  z " transform="scale(0.015625)" />
     </defs>
     <use xlink:href="#ArialMT-49" />
     <use xlink:href="#ArialMT-6e" x="27.783203" />
     <use xlink:href="#ArialMT-74" x="83.398438" />
     <use xlink:href="#ArialMT-65" x="111.181641" />
     <use xlink:href="#ArialMT-72" x="166.796875" />
     <use xlink:href="#ArialMT-61" x="200.097656" />
     <use xlink:href="#ArialMT-63" x="255.712891" />
     <use xlink:href="#ArialMT-74" x="305.712891" />
     <use xlink:href="#ArialMT-69" x="333.496094" />
     <use xlink:href="#ArialMT-76" x="355.712891" />
     <use xlink:href="#ArialMT-65" x="405.712891" />
    </g>
   </g>
  </g>
 </g>
</svg></g>

<g id="edge13" class="edge">
<title>node13-&gt;leaf14</title>
<path fill="none" stroke="#444443" stroke-width="0.3" d="M212.52,-156.8C211.58,-151.31 210.1,-142.72 208.74,-134.82" />
<polygon fill="#444443" stroke="#444443" stroke-width="0.3" points="210.06,-134.24 208,-130.54 207.3,-134.72 210.06,-134.24" />
</g>

<g id="node16" class="node">
<title>leaf15</title>
<polygon fill="none" stroke="#444443" stroke-width="0" points="260,-131 239,-131 239,-99 260,-99 260,-131" />
<svg width="13px" height="24px" viewBox="0 0 18.007031 33.453969" version="1.1" preserveAspectRatio="xMinYMin meet" x="243.5" y="-127">
 <metadata>
  <rdf:RDF>
   <ns2:Work>
    <dc:type rdf:resource="http://purl.org/dc/dcmitype/StillImage" />
    <dc:date>2022-09-08T15:58:34.334655</dc:date>
    <dc:format>image/svg+xml</dc:format>
    <dc:creator>
     <ns2:Agent>
      <dc:title>Matplotlib v3.5.1, https://matplotlib.org/</dc:title>
     </ns2:Agent>
    </dc:creator>
   </ns2:Work>
  </rdf:RDF>
 </metadata>
 <defs>
  <style type="text/css">*{stroke-linejoin: round; stroke-linecap: butt}</style>
 </defs>
 <g id="figure_1">
  <g id="patch_1">
   <path d="M 0 33.453969  L 18.007031 33.453969  L 18.007031 0  L 0 0  L 0 33.453969  z " style="fill: none" />
  </g>
  <g id="axes_1">
   <g id="patch_2">
    <path d="M 16.553516 7.55  C 16.553516 6.757744 16.428813 5.970402 16.183992 5.216922  C 15.939172 4.463441 15.57727 3.75317 15.111594 3.112221  C 14.645917 2.471272 14.082243 1.907598 13.441294 1.441922  C 12.800345 0.976245 12.090074 0.614344 11.336594 0.369523  C 10.583113 0.124703 9.795772 -0 9.003515 -0  C 8.211259 0 7.423918 0.124703 6.670437 0.369523  C 5.916957 0.614344 5.206686 0.976245 4.565737 1.441922  C 3.924788 1.907598 3.361114 2.471273 2.895437 3.112222  C 2.429761 3.75317 2.067859 4.463441 1.823039 5.216922  C 1.578218 5.970403 1.453516 6.757744 1.453516 7.55  C 1.453516 8.342257 1.578218 9.129598 1.823039 9.883079  C 2.06786 10.636559 2.429761 11.34683 2.895438 11.987779  C 3.361114 12.628728 3.924789 13.192402 4.565737 13.658079  C 5.206686 14.123755 5.916957 14.485656 6.670438 14.730477  C 7.423918 14.975297 8.21126 15.1 9.003516 15.1  C 9.795772 15.1 10.583114 14.975297 11.336594 14.730477  L 9.003516 7.55  L 16.553516 7.55  z " style="fill: #377eb8; stroke: #444443; stroke-width: 0.5; stroke-linejoin: miter" />
   </g>
   <g id="patch_3">
    <path d="M 11.336594 14.730477  C 12.852727 14.237855 14.174573 13.277477 15.111594 11.987778  C 16.048615 10.698079 16.553516 9.144155 16.553516 7.549999  L 9.003516 7.55  L 11.336594 14.730477  z " style="fill: #ff7f00; stroke: #444443; stroke-width: 0.5; stroke-linejoin: miter" />
   </g>
   <g id="text_1">
    
    <g style="fill: #444443" transform="translate(1.370391 22.146031)scale(0.09 -0.09)">
     <defs>
      <path id="ArialMT-6e" d="M 422 0  L 422 3319  L 928 3319  L 928 2847  Q 1294 3394 1984 3394  Q 2284 3394 2536 3286  Q 2788 3178 2913 3003  Q 3038 2828 3088 2588  Q 3119 2431 3119 2041  L 3119 0  L 2556 0  L 2556 2019  Q 2556 2363 2490 2533  Q 2425 2703 2258 2804  Q 2091 2906 1866 2906  Q 1506 2906 1245 2678  Q 984 2450 984 1813  L 984 0  L 422 0  z " transform="scale(0.015625)" />
      <path id="ArialMT-3d" d="M 3381 2694  L 356 2694  L 356 3219  L 3381 3219  L 3381 2694  z M 3381 1303  L 356 1303  L 356 1828  L 3381 1828  L 3381 1303  z " transform="scale(0.015625)" />
      <path id="ArialMT-35" d="M 266 1200  L 856 1250  Q 922 819 1161 601  Q 1400 384 1738 384  Q 2144 384 2425 690  Q 2706 997 2706 1503  Q 2706 1984 2436 2262  Q 2166 2541 1728 2541  Q 1456 2541 1237 2417  Q 1019 2294 894 2097  L 366 2166  L 809 4519  L 3088 4519  L 3088 3981  L 1259 3981  L 1013 2750  Q 1425 3038 1878 3038  Q 2478 3038 2890 2622  Q 3303 2206 3303 1553  Q 3303 931 2941 478  Q 2500 -78 1738 -78  Q 1113 -78 717 272  Q 322 622 266 1200  z " transform="scale(0.015625)" />
     </defs>
     <use xlink:href="#ArialMT-6e" />
     <use xlink:href="#ArialMT-3d" x="55.615234" />
     <use xlink:href="#ArialMT-35" x="114.013672" />
    </g>
    
    <g style="fill: #444443" transform="translate(0 31.665219)scale(0.09 -0.09)">
     <defs>
      <path id="ArialMT-49" d="M 597 0  L 597 4581  L 1203 4581  L 1203 0  L 597 0  z " transform="scale(0.015625)" />
      <path id="ArialMT-65" d="M 2694 1069  L 3275 997  Q 3138 488 2766 206  Q 2394 -75 1816 -75  Q 1088 -75 661 373  Q 234 822 234 1631  Q 234 2469 665 2931  Q 1097 3394 1784 3394  Q 2450 3394 2872 2941  Q 3294 2488 3294 1666  Q 3294 1616 3291 1516  L 816 1516  Q 847 969 1125 678  Q 1403 388 1819 388  Q 2128 388 2347 550  Q 2566 713 2694 1069  z M 847 1978  L 2700 1978  Q 2663 2397 2488 2606  Q 2219 2931 1791 2931  Q 1403 2931 1139 2672  Q 875 2413 847 1978  z " transform="scale(0.015625)" />
      <path id="ArialMT-72" d="M 416 0  L 416 3319  L 922 3319  L 922 2816  Q 1116 3169 1280 3281  Q 1444 3394 1641 3394  Q 1925 3394 2219 3213  L 2025 2691  Q 1819 2813 1613 2813  Q 1428 2813 1281 2702  Q 1134 2591 1072 2394  Q 978 2094 978 1738  L 978 0  L 416 0  z " transform="scale(0.015625)" />
      <path id="ArialMT-74" d="M 1650 503  L 1731 6  Q 1494 -44 1306 -44  Q 1000 -44 831 53  Q 663 150 594 308  Q 525 466 525 972  L 525 2881  L 113 2881  L 113 3319  L 525 3319  L 525 4141  L 1084 4478  L 1084 3319  L 1650 3319  L 1650 2881  L 1084 2881  L 1084 941  Q 1084 700 1114 631  Q 1144 563 1211 522  Q 1278 481 1403 481  Q 1497 481 1650 503  z " transform="scale(0.015625)" />
     </defs>
     <use xlink:href="#ArialMT-49" />
     <use xlink:href="#ArialMT-6e" x="27.783203" />
     <use xlink:href="#ArialMT-65" x="83.398438" />
     <use xlink:href="#ArialMT-72" x="139.013672" />
     <use xlink:href="#ArialMT-74" x="172.314453" />
    </g>
   </g>
  </g>
 </g>
</svg></g>

<g id="edge14" class="edge">
<title>node13-&gt;leaf15</title>
<path fill="none" stroke="#444443" stroke-width="0.3" d="M217.91,-156.8C222.45,-150.94 229.73,-141.53 236.16,-133.23" />
<polygon fill="#444443" stroke="#444443" stroke-width="0.3" points="237.52,-133.77 238.86,-129.75 235.3,-132.05 237.52,-133.77" />
</g>

<g id="edge16" class="edge">
<title>node5-&gt;node6</title>
<path fill="none" stroke="#444443" stroke-width="0.3" d="M143.47,-195.72C141.43,-189.93 138.27,-180.92 135.86,-174.06" />
<polygon fill="#444443" stroke="#444443" stroke-width="0.3" points="137.12,-173.43 134.47,-170.12 134.48,-174.36 137.12,-173.43" />
</g>

<g id="edge17" class="edge">
<title>node5-&gt;node13</title>
<path fill="none" stroke="#444443" stroke-width="0.3" d="M155.83,-195.88C167.41,-189.58 186.27,-179.32 199.25,-172.25" />
<polygon fill="#444443" stroke="#444443" stroke-width="0.3" points="200.23,-173.31 203.08,-170.17 198.89,-170.85 200.23,-173.31" />
</g>

<g id="node7" class="node">
<title>node1</title>
<text text-anchor="start" x="70" y="-238.4" font-family="Helvetica,sans-Serif" font-size="12.00" fill="#444443">PC 3@-3.17</text>
</g>

<g id="edge19" class="edge">
<title>node1-&gt;node2</title>
<path fill="none" stroke="#444443" stroke-width="0.3" d="M97.25,-234.72C90.64,-228.6 80.13,-218.89 72.6,-211.92" />
<polygon fill="#444443" stroke="#444443" stroke-width="0.3" points="73.46,-210.81 69.58,-209.12 71.56,-212.86 73.46,-210.81" />
</g>

<g id="edge20" class="edge">
<title>node1-&gt;node5</title>
<path fill="none" stroke="#444443" stroke-width="0.3" d="M110.06,-234.72C117.01,-228.6 128.03,-218.89 135.94,-211.92" />
<polygon fill="#444443" stroke="#444443" stroke-width="0.3" points="137.05,-212.81 139.12,-209.12 135.19,-210.71 137.05,-212.81" />
</g>

<g id="node17" class="node">
<title>leaf16</title>
<polygon fill="none" stroke="#444443" stroke-width="0" points="190,-257 151,-257 151,-226 190,-226 190,-257" />
<svg width="31px" height="23px" viewBox="0 0 41.516719 30.941329" version="1.1" preserveAspectRatio="xMinYMin meet" x="155.5" y="-252.5">
 <metadata>
  <rdf:RDF>
   <ns2:Work>
    <dc:type rdf:resource="http://purl.org/dc/dcmitype/StillImage" />
    <dc:date>2022-09-08T15:58:34.400467</dc:date>
    <dc:format>image/svg+xml</dc:format>
    <dc:creator>
     <ns2:Agent>
      <dc:title>Matplotlib v3.5.1, https://matplotlib.org/</dc:title>
     </ns2:Agent>
    </dc:creator>
   </ns2:Work>
  </rdf:RDF>
 </metadata>
 <defs>
  <style type="text/css">*{stroke-linejoin: round; stroke-linecap: butt}</style>
 </defs>
 <g id="figure_1">
  <g id="patch_1">
   <path d="M 0 30.941329  L 41.516719 30.941329  L 41.516719 -0  L 0 -0  L 0 30.941329  z " style="fill: none" />
  </g>
  <g id="axes_1">
   <g id="patch_2">
    <path d="M 27.100359 6.342  C 27.100359 5.509176 26.936311 4.684451 26.617603 3.915022  C 26.298895 3.145593 25.831726 2.446424 25.242831 1.857529  C 24.653935 1.268633 23.954767 0.801464 23.185338 0.482756  C 22.415909 0.164048 21.591183 0 20.758359 0  C 19.925536 0 19.10081 0.164048 18.331381 0.482756  C 17.561952 0.801464 16.862784 1.268633 16.273888 1.857529  C 15.684993 2.446424 15.217823 3.145593 14.899115 3.915022  C 14.580408 4.684451 14.416359 5.509176 14.416359 6.342  C 14.416359 7.174824 14.580408 7.999549 14.899115 8.768978  C 15.217823 9.538407 15.684993 10.237576 16.273888 10.826471  C 16.862784 11.415367 17.561952 11.882536 18.331381 12.201244  C 19.10081 12.519952 19.925536 12.684 20.758359 12.684  C 21.591183 12.684 22.415909 12.519952 23.185338 12.201244  C 23.954767 11.882536 24.653935 11.415367 25.242831 10.826471  C 25.831726 10.237576 26.298895 9.538407 26.617603 8.768978  C 26.936311 7.999549 27.100359 7.174824 27.100359 6.342  M 20.758359 6.342  M 27.100359 6.342  z " style="fill: #ff7f00; stroke: #444443; stroke-width: 0.5; stroke-linejoin: miter" />
   </g>
   <g id="text_1">
    
    <g style="fill: #444443" transform="translate(13.125234 19.633391)scale(0.09 -0.09)">
     <defs>
      <path id="ArialMT-6e" d="M 422 0  L 422 3319  L 928 3319  L 928 2847  Q 1294 3394 1984 3394  Q 2284 3394 2536 3286  Q 2788 3178 2913 3003  Q 3038 2828 3088 2588  Q 3119 2431 3119 2041  L 3119 0  L 2556 0  L 2556 2019  Q 2556 2363 2490 2533  Q 2425 2703 2258 2804  Q 2091 2906 1866 2906  Q 1506 2906 1245 2678  Q 984 2450 984 1813  L 984 0  L 422 0  z " transform="scale(0.015625)" />
      <path id="ArialMT-3d" d="M 3381 2694  L 356 2694  L 356 3219  L 3381 3219  L 3381 2694  z M 3381 1303  L 356 1303  L 356 1828  L 3381 1828  L 3381 1303  z " transform="scale(0.015625)" />
      <path id="ArialMT-33" d="M 269 1209  L 831 1284  Q 928 806 1161 595  Q 1394 384 1728 384  Q 2125 384 2398 659  Q 2672 934 2672 1341  Q 2672 1728 2419 1979  Q 2166 2231 1775 2231  Q 1616 2231 1378 2169  L 1441 2663  Q 1497 2656 1531 2656  Q 1891 2656 2178 2843  Q 2466 3031 2466 3422  Q 2466 3731 2256 3934  Q 2047 4138 1716 4138  Q 1388 4138 1169 3931  Q 950 3725 888 3313  L 325 3413  Q 428 3978 793 4289  Q 1159 4600 1703 4600  Q 2078 4600 2393 4439  Q 2709 4278 2876 4000  Q 3044 3722 3044 3409  Q 3044 3113 2884 2869  Q 2725 2625 2413 2481  Q 2819 2388 3044 2092  Q 3269 1797 3269 1353  Q 3269 753 2831 336  Q 2394 -81 1725 -81  Q 1122 -81 723 278  Q 325 638 269 1209  z " transform="scale(0.015625)" />
     </defs>
     <use xlink:href="#ArialMT-6e" />
     <use xlink:href="#ArialMT-3d" x="55.615234" />
     <use xlink:href="#ArialMT-33" x="114.013672" />
    </g>
    
    <g style="fill: #444443" transform="translate(-0 29.152579)scale(0.09 -0.09)">
     <defs>
      <path id="ArialMT-49" d="M 597 0  L 597 4581  L 1203 4581  L 1203 0  L 597 0  z " transform="scale(0.015625)" />
      <path id="ArialMT-74" d="M 1650 503  L 1731 6  Q 1494 -44 1306 -44  Q 1000 -44 831 53  Q 663 150 594 308  Q 525 466 525 972  L 525 2881  L 113 2881  L 113 3319  L 525 3319  L 525 4141  L 1084 4478  L 1084 3319  L 1650 3319  L 1650 2881  L 1084 2881  L 1084 941  Q 1084 700 1114 631  Q 1144 563 1211 522  Q 1278 481 1403 481  Q 1497 481 1650 503  z " transform="scale(0.015625)" />
      <path id="ArialMT-65" d="M 2694 1069  L 3275 997  Q 3138 488 2766 206  Q 2394 -75 1816 -75  Q 1088 -75 661 373  Q 234 822 234 1631  Q 234 2469 665 2931  Q 1097 3394 1784 3394  Q 2450 3394 2872 2941  Q 3294 2488 3294 1666  Q 3294 1616 3291 1516  L 816 1516  Q 847 969 1125 678  Q 1403 388 1819 388  Q 2128 388 2347 550  Q 2566 713 2694 1069  z M 847 1978  L 2700 1978  Q 2663 2397 2488 2606  Q 2219 2931 1791 2931  Q 1403 2931 1139 2672  Q 875 2413 847 1978  z " transform="scale(0.015625)" />
      <path id="ArialMT-72" d="M 416 0  L 416 3319  L 922 3319  L 922 2816  Q 1116 3169 1280 3281  Q 1444 3394 1641 3394  Q 1925 3394 2219 3213  L 2025 2691  Q 1819 2813 1613 2813  Q 1428 2813 1281 2702  Q 1134 2591 1072 2394  Q 978 2094 978 1738  L 978 0  L 416 0  z " transform="scale(0.015625)" />
      <path id="ArialMT-61" d="M 2588 409  Q 2275 144 1986 34  Q 1697 -75 1366 -75  Q 819 -75 525 192  Q 231 459 231 875  Q 231 1119 342 1320  Q 453 1522 633 1644  Q 813 1766 1038 1828  Q 1203 1872 1538 1913  Q 2219 1994 2541 2106  Q 2544 2222 2544 2253  Q 2544 2597 2384 2738  Q 2169 2928 1744 2928  Q 1347 2928 1158 2789  Q 969 2650 878 2297  L 328 2372  Q 403 2725 575 2942  Q 747 3159 1072 3276  Q 1397 3394 1825 3394  Q 2250 3394 2515 3294  Q 2781 3194 2906 3042  Q 3031 2891 3081 2659  Q 3109 2516 3109 2141  L 3109 1391  Q 3109 606 3145 398  Q 3181 191 3288 0  L 2700 0  Q 2613 175 2588 409  z M 2541 1666  Q 2234 1541 1622 1453  Q 1275 1403 1131 1340  Q 988 1278 909 1158  Q 831 1038 831 891  Q 831 666 1001 516  Q 1172 366 1500 366  Q 1825 366 2078 508  Q 2331 650 2450 897  Q 2541 1088 2541 1459  L 2541 1666  z " transform="scale(0.015625)" />
      <path id="ArialMT-63" d="M 2588 1216  L 3141 1144  Q 3050 572 2676 248  Q 2303 -75 1759 -75  Q 1078 -75 664 370  Q 250 816 250 1647  Q 250 2184 428 2587  Q 606 2991 970 3192  Q 1334 3394 1763 3394  Q 2303 3394 2647 3120  Q 2991 2847 3088 2344  L 2541 2259  Q 2463 2594 2264 2762  Q 2066 2931 1784 2931  Q 1359 2931 1093 2626  Q 828 2322 828 1663  Q 828 994 1084 691  Q 1341 388 1753 388  Q 2084 388 2306 591  Q 2528 794 2588 1216  z " transform="scale(0.015625)" />
      <path id="ArialMT-69" d="M 425 3934  L 425 4581  L 988 4581  L 988 3934  L 425 3934  z M 425 0  L 425 3319  L 988 3319  L 988 0  L 425 0  z " transform="scale(0.015625)" />
      <path id="ArialMT-76" d="M 1344 0  L 81 3319  L 675 3319  L 1388 1331  Q 1503 1009 1600 663  Q 1675 925 1809 1294  L 2547 3319  L 3125 3319  L 1869 0  L 1344 0  z " transform="scale(0.015625)" />
     </defs>
     <use xlink:href="#ArialMT-49" />
     <use xlink:href="#ArialMT-6e" x="27.783203" />
     <use xlink:href="#ArialMT-74" x="83.398438" />
     <use xlink:href="#ArialMT-65" x="111.181641" />
     <use xlink:href="#ArialMT-72" x="166.796875" />
     <use xlink:href="#ArialMT-61" x="200.097656" />
     <use xlink:href="#ArialMT-63" x="255.712891" />
     <use xlink:href="#ArialMT-74" x="305.712891" />
     <use xlink:href="#ArialMT-69" x="333.496094" />
     <use xlink:href="#ArialMT-76" x="355.712891" />
     <use xlink:href="#ArialMT-65" x="405.712891" />
    </g>
   </g>
  </g>
 </g>
</svg></g>


<g id="node8" class="node">
<title>node0</title>
<text text-anchor="start" x="101.5" y="-310.9" font-family="Helvetica,sans-Serif" font-size="12.00" fill="#444443">PC 12@1.70</text>
</g>

<g id="edge22" class="edge">
<title>node0-&gt;node1</title>
<path fill="none" stroke="#444443" stroke-width="0.3" d="M133.91,-307.47C128.3,-295.48 114.96,-266.99 107.96,-252.04" />
<polygon fill="#444443" stroke="#444443" stroke-width="0.3" points="109.13,-251.23 106.17,-248.2 106.6,-252.42 109.13,-251.23" />
<text text-anchor="start" x="121.5" y="-268.8" font-family="Times,serif" font-size="14.00">&#8804;</text>
</g>

<g id="edge23" class="edge">
<title>node0-&gt;leaf16</title>
<path fill="none" stroke="#444443" stroke-width="0.3" d="M139.17,-307.47C143.93,-297.59 154.1,-276.52 161.56,-261.04" />
<polygon fill="#444443" stroke="#444443" stroke-width="0.3" points="162.92,-261.44 163.4,-257.23 160.4,-260.23 162.92,-261.44" />
<text text-anchor="start" x="160.5" y="-268.8" font-family="Times,serif" font-size="14.00">&gt;</text>
</g>





<g id="node18" class="node">
<title>legend</title>
<polygon fill="none" stroke="black" stroke-width="0" points="258,-340 179,-340 179,-288 258,-288 258,-340" />
<svg width="75px" height="48px" viewBox="0 0 100.4125 65.244687" version="1.1" preserveAspectRatio="xMinYMin meet" x="181.5" y="-338">
 <metadata>
  <rdf:RDF>
   <ns2:Work>
    <dc:type rdf:resource="http://purl.org/dc/dcmitype/StillImage" />
    <dc:date>2022-09-08T15:58:33.700162</dc:date>
    <dc:format>image/svg+xml</dc:format>
    <dc:creator>
     <ns2:Agent>
      <dc:title>Matplotlib v3.5.1, https://matplotlib.org/</dc:title>
     </ns2:Agent>
    </dc:creator>
   </ns2:Work>
  </rdf:RDF>
 </metadata>
 <defs>
  <style type="text/css">*{stroke-linejoin: round; stroke-linecap: butt}</style>
 </defs>
 <g id="figure_1">
  <g id="patch_1">
   <path d="M 0 65.244687  L 100.4125 65.244687  L 100.4125 0  L 0 0  L 0 65.244687  z " style="fill: none" />
  </g>
  <g id="axes_1">
   <g id="legend_1">
    <g id="patch_2">
     <path d="M 2 65.244687  L 98.4125 65.244687  Q 100.4125 65.244687 100.4125 63.244687  L 100.4125 2  Q 100.4125 0 98.4125 0  L 2 0  Q 0 0 0 2  L 0 63.244687  Q 0 65.244687 2 65.244687  z " style="fill: #ffffff; opacity: 0.8; stroke: #444443; stroke-width: 0.5; stroke-linejoin: miter" />
    </g>
    <g id="text_1">
     
     <g style="fill: #444443" transform="translate(8 15.598438)scale(0.1 -0.1)">
      <defs>
       <path id="DejaVuSans-Bold-50" d="M 588 4666  L 2584 4666  Q 3475 4666 3951 4270  Q 4428 3875 4428 3144  Q 4428 2409 3951 2014  Q 3475 1619 2584 1619  L 1791 1619  L 1791 0  L 588 0  L 588 4666  z M 1791 3794  L 1791 2491  L 2456 2491  Q 2806 2491 2997 2661  Q 3188 2831 3188 3144  Q 3188 3456 2997 3625  Q 2806 3794 2456 3794  L 1791 3794  z " transform="scale(0.015625)" />
       <path id="DejaVuSans-Bold-72" d="M 3138 2547  Q 2991 2616 2845 2648  Q 2700 2681 2553 2681  Q 2122 2681 1889 2404  Q 1656 2128 1656 1613  L 1656 0  L 538 0  L 538 3500  L 1656 3500  L 1656 2925  Q 1872 3269 2151 3426  Q 2431 3584 2822 3584  Q 2878 3584 2943 3579  Q 3009 3575 3134 3559  L 3138 2547  z " transform="scale(0.015625)" />
       <path id="DejaVuSans-Bold-6f" d="M 2203 2784  Q 1831 2784 1636 2517  Q 1441 2250 1441 1747  Q 1441 1244 1636 976  Q 1831 709 2203 709  Q 2569 709 2762 976  Q 2956 1244 2956 1747  Q 2956 2250 2762 2517  Q 2569 2784 2203 2784  z M 2203 3584  Q 3106 3584 3614 3096  Q 4122 2609 4122 1747  Q 4122 884 3614 396  Q 3106 -91 2203 -91  Q 1297 -91 786 396  Q 275 884 275 1747  Q 275 2609 786 3096  Q 1297 3584 2203 3584  z " transform="scale(0.015625)" />
       <path id="DejaVuSans-Bold-74" d="M 1759 4494  L 1759 3500  L 2913 3500  L 2913 2700  L 1759 2700  L 1759 1216  Q 1759 972 1856 886  Q 1953 800 2241 800  L 2816 800  L 2816 0  L 1856 0  Q 1194 0 917 276  Q 641 553 641 1216  L 641 2700  L 84 2700  L 84 3500  L 641 3500  L 641 4494  L 1759 4494  z " transform="scale(0.015625)" />
       <path id="DejaVuSans-Bold-6e" d="M 4056 2131  L 4056 0  L 2931 0  L 2931 347  L 2931 1631  Q 2931 2084 2911 2256  Q 2891 2428 2841 2509  Q 2775 2619 2662 2680  Q 2550 2741 2406 2741  Q 2056 2741 1856 2470  Q 1656 2200 1656 1722  L 1656 0  L 538 0  L 538 3500  L 1656 3500  L 1656 2988  Q 1909 3294 2193 3439  Q 2478 3584 2822 3584  Q 3428 3584 3742 3212  Q 4056 2841 4056 2131  z " transform="scale(0.015625)" />
       <path id="DejaVuSans-Bold-20" transform="scale(0.015625)" />
       <path id="DejaVuSans-Bold-42" d="M 2456 2859  Q 2741 2859 2887 2984  Q 3034 3109 3034 3353  Q 3034 3594 2887 3720  Q 2741 3847 2456 3847  L 1791 3847  L 1791 2859  L 2456 2859  z M 2497 819  Q 2859 819 3042 972  Q 3225 1125 3225 1434  Q 3225 1738 3044 1889  Q 2863 2041 2497 2041  L 1791 2041  L 1791 819  L 2497 819  z M 3616 2497  Q 4003 2384 4215 2081  Q 4428 1778 4428 1338  Q 4428 663 3972 331  Q 3516 0 2584 0  L 588 0  L 588 4666  L 2394 4666  Q 3366 4666 3802 4372  Q 4238 4078 4238 3431  Q 4238 3091 4078 2852  Q 3919 2613 3616 2497  z " transform="scale(0.015625)" />
       <path id="DejaVuSans-Bold-69" d="M 538 3500  L 1656 3500  L 1656 0  L 538 0  L 538 3500  z M 538 4863  L 1656 4863  L 1656 3950  L 538 3950  L 538 4863  z " transform="scale(0.015625)" />
       <path id="DejaVuSans-Bold-64" d="M 2919 2988  L 2919 4863  L 4044 4863  L 4044 0  L 2919 0  L 2919 506  Q 2688 197 2409 53  Q 2131 -91 1766 -91  Q 1119 -91 703 423  Q 288 938 288 1747  Q 288 2556 703 3070  Q 1119 3584 1766 3584  Q 2128 3584 2408 3439  Q 2688 3294 2919 2988  z M 2181 722  Q 2541 722 2730 984  Q 2919 1247 2919 1747  Q 2919 2247 2730 2509  Q 2541 2772 2181 2772  Q 1825 2772 1636 2509  Q 1447 2247 1447 1747  Q 1447 1247 1636 984  Q 1825 722 2181 722  z " transform="scale(0.015625)" />
       <path id="DejaVuSans-Bold-67" d="M 2919 594  Q 2688 288 2409 144  Q 2131 0 1766 0  Q 1125 0 706 504  Q 288 1009 288 1791  Q 288 2575 706 3076  Q 1125 3578 1766 3578  Q 2131 3578 2409 3434  Q 2688 3291 2919 2981  L 2919 3500  L 4044 3500  L 4044 353  Q 4044 -491 3511 -936  Q 2978 -1381 1966 -1381  Q 1638 -1381 1331 -1331  Q 1025 -1281 716 -1178  L 716 -306  Q 1009 -475 1290 -558  Q 1572 -641 1856 -641  Q 2406 -641 2662 -400  Q 2919 -159 2919 353  L 2919 594  z M 2181 2772  Q 1834 2772 1640 2515  Q 1447 2259 1447 1791  Q 1447 1309 1634 1061  Q 1822 813 2181 813  Q 2531 813 2725 1069  Q 2919 1325 2919 1791  Q 2919 2259 2725 2515  Q 2531 2772 2181 2772  z " transform="scale(0.015625)" />
      </defs>
      <use xlink:href="#DejaVuSans-Bold-50" />
      <use xlink:href="#DejaVuSans-Bold-72" x="73.291016" />
      <use xlink:href="#DejaVuSans-Bold-6f" x="122.607422" />
      <use xlink:href="#DejaVuSans-Bold-74" x="191.308594" />
      <use xlink:href="#DejaVuSans-Bold-6f" x="239.111328" />
      <use xlink:href="#DejaVuSans-Bold-6e" x="307.8125" />
      <use xlink:href="#DejaVuSans-Bold-20" x="379.003906" />
      <use xlink:href="#DejaVuSans-Bold-42" x="413.818359" />
      <use xlink:href="#DejaVuSans-Bold-69" x="490.039062" />
      <use xlink:href="#DejaVuSans-Bold-6e" x="524.316406" />
      <use xlink:href="#DejaVuSans-Bold-64" x="595.507812" />
      <use xlink:href="#DejaVuSans-Bold-69" x="667.089844" />
      <use xlink:href="#DejaVuSans-Bold-6e" x="701.367188" />
      <use xlink:href="#DejaVuSans-Bold-67" x="772.558594" />
     </g>
     
     <g style="fill: #444443" transform="translate(8 26.874375)scale(0.1 -0.1)">
      <defs>
       <path id="DejaVuSans-Bold-4f" d="M 2719 3878  Q 2169 3878 1866 3472  Q 1563 3066 1563 2328  Q 1563 1594 1866 1187  Q 2169 781 2719 781  Q 3272 781 3575 1187  Q 3878 1594 3878 2328  Q 3878 3066 3575 3472  Q 3272 3878 2719 3878  z M 2719 4750  Q 3844 4750 4481 4106  Q 5119 3463 5119 2328  Q 5119 1197 4481 553  Q 3844 -91 2719 -91  Q 1597 -91 958 553  Q 319 1197 319 2328  Q 319 3463 958 4106  Q 1597 4750 2719 4750  z " transform="scale(0.015625)" />
       <path id="DejaVuSans-Bold-75" d="M 500 1363  L 500 3500  L 1625 3500  L 1625 3150  Q 1625 2866 1622 2436  Q 1619 2006 1619 1863  Q 1619 1441 1641 1255  Q 1663 1069 1716 984  Q 1784 875 1895 815  Q 2006 756 2150 756  Q 2500 756 2700 1025  Q 2900 1294 2900 1772  L 2900 3500  L 4019 3500  L 4019 0  L 2900 0  L 2900 506  Q 2647 200 2364 54  Q 2081 -91 1741 -91  Q 1134 -91 817 281  Q 500 653 500 1363  z " transform="scale(0.015625)" />
       <path id="DejaVuSans-Bold-63" d="M 3366 3391  L 3366 2478  Q 3138 2634 2908 2709  Q 2678 2784 2431 2784  Q 1963 2784 1702 2511  Q 1441 2238 1441 1747  Q 1441 1256 1702 982  Q 1963 709 2431 709  Q 2694 709 2930 787  Q 3166 866 3366 1019  L 3366 103  Q 3103 6 2833 -42  Q 2563 -91 2291 -91  Q 1344 -91 809 395  Q 275 881 275 1747  Q 275 2613 809 3098  Q 1344 3584 2291 3584  Q 2566 3584 2833 3536  Q 3100 3488 3366 3391  z " transform="scale(0.015625)" />
       <path id="DejaVuSans-Bold-6d" d="M 3781 2919  Q 3994 3244 4286 3414  Q 4578 3584 4928 3584  Q 5531 3584 5847 3212  Q 6163 2841 6163 2131  L 6163 0  L 5038 0  L 5038 1825  Q 5041 1866 5042 1909  Q 5044 1953 5044 2034  Q 5044 2406 4934 2573  Q 4825 2741 4581 2741  Q 4263 2741 4089 2478  Q 3916 2216 3909 1719  L 3909 0  L 2784 0  L 2784 1825  Q 2784 2406 2684 2573  Q 2584 2741 2328 2741  Q 2006 2741 1831 2477  Q 1656 2213 1656 1722  L 1656 0  L 531 0  L 531 3500  L 1656 3500  L 1656 2988  Q 1863 3284 2130 3434  Q 2397 3584 2719 3584  Q 3081 3584 3359 3409  Q 3638 3234 3781 2919  z " transform="scale(0.015625)" />
       <path id="DejaVuSans-Bold-65" d="M 4031 1759  L 4031 1441  L 1416 1441  Q 1456 1047 1700 850  Q 1944 653 2381 653  Q 2734 653 3104 758  Q 3475 863 3866 1075  L 3866 213  Q 3469 63 3072 -14  Q 2675 -91 2278 -91  Q 1328 -91 801 392  Q 275 875 275 1747  Q 275 2603 792 3093  Q 1309 3584 2216 3584  Q 3041 3584 3536 3087  Q 4031 2591 4031 1759  z M 2881 2131  Q 2881 2450 2695 2645  Q 2509 2841 2209 2841  Q 1884 2841 1681 2658  Q 1478 2475 1428 2131  L 2881 2131  z " transform="scale(0.015625)" />
      </defs>
      <use xlink:href="#DejaVuSans-Bold-4f" />
      <use xlink:href="#DejaVuSans-Bold-75" x="85.009766" />
      <use xlink:href="#DejaVuSans-Bold-74" x="156.201172" />
      <use xlink:href="#DejaVuSans-Bold-63" x="204.003906" />
      <use xlink:href="#DejaVuSans-Bold-6f" x="263.28125" />
      <use xlink:href="#DejaVuSans-Bold-6d" x="331.982422" />
      <use xlink:href="#DejaVuSans-Bold-65" x="436.181641" />
     </g>
    </g>
    <g id="patch_3">
     <path d="M 15.391406 41.111875  L 35.391406 41.111875  L 35.391406 34.111875  L 15.391406 34.111875  z " style="fill: #377eb8; stroke: #444443; stroke-width: 0.4; stroke-linejoin: miter" />
    </g>
    <g id="text_2">
     
     <g style="fill: #444443" transform="translate(38.891406 41.111875)scale(0.1 -0.1)">
      <defs>
       <path id="ArialMT-49" d="M 597 0  L 597 4581  L 1203 4581  L 1203 0  L 597 0  z " transform="scale(0.015625)" />
       <path id="ArialMT-6e" d="M 422 0  L 422 3319  L 928 3319  L 928 2847  Q 1294 3394 1984 3394  Q 2284 3394 2536 3286  Q 2788 3178 2913 3003  Q 3038 2828 3088 2588  Q 3119 2431 3119 2041  L 3119 0  L 2556 0  L 2556 2019  Q 2556 2363 2490 2533  Q 2425 2703 2258 2804  Q 2091 2906 1866 2906  Q 1506 2906 1245 2678  Q 984 2450 984 1813  L 984 0  L 422 0  z " transform="scale(0.015625)" />
       <path id="ArialMT-65" d="M 2694 1069  L 3275 997  Q 3138 488 2766 206  Q 2394 -75 1816 -75  Q 1088 -75 661 373  Q 234 822 234 1631  Q 234 2469 665 2931  Q 1097 3394 1784 3394  Q 2450 3394 2872 2941  Q 3294 2488 3294 1666  Q 3294 1616 3291 1516  L 816 1516  Q 847 969 1125 678  Q 1403 388 1819 388  Q 2128 388 2347 550  Q 2566 713 2694 1069  z M 847 1978  L 2700 1978  Q 2663 2397 2488 2606  Q 2219 2931 1791 2931  Q 1403 2931 1139 2672  Q 875 2413 847 1978  z " transform="scale(0.015625)" />
       <path id="ArialMT-72" d="M 416 0  L 416 3319  L 922 3319  L 922 2816  Q 1116 3169 1280 3281  Q 1444 3394 1641 3394  Q 1925 3394 2219 3213  L 2025 2691  Q 1819 2813 1613 2813  Q 1428 2813 1281 2702  Q 1134 2591 1072 2394  Q 978 2094 978 1738  L 978 0  L 416 0  z " transform="scale(0.015625)" />
       <path id="ArialMT-74" d="M 1650 503  L 1731 6  Q 1494 -44 1306 -44  Q 1000 -44 831 53  Q 663 150 594 308  Q 525 466 525 972  L 525 2881  L 113 2881  L 113 3319  L 525 3319  L 525 4141  L 1084 4478  L 1084 3319  L 1650 3319  L 1650 2881  L 1084 2881  L 1084 941  Q 1084 700 1114 631  Q 1144 563 1211 522  Q 1278 481 1403 481  Q 1497 481 1650 503  z " transform="scale(0.015625)" />
      </defs>
      <use xlink:href="#ArialMT-49" />
      <use xlink:href="#ArialMT-6e" x="27.783203" />
      <use xlink:href="#ArialMT-65" x="83.398438" />
      <use xlink:href="#ArialMT-72" x="139.013672" />
      <use xlink:href="#ArialMT-74" x="172.314453" />
     </g>
    </g>
    <g id="patch_4">
     <path d="M 15.391406 55.257188  L 35.391406 55.257188  L 35.391406 48.257188  L 15.391406 48.257188  z " style="fill: #ff7f00; stroke: #444443; stroke-width: 0.4; stroke-linejoin: miter" />
    </g>
    <g id="text_3">
     
     <g style="fill: #444443" transform="translate(38.891406 55.257188)scale(0.1 -0.1)">
      <defs>
       <path id="ArialMT-61" d="M 2588 409  Q 2275 144 1986 34  Q 1697 -75 1366 -75  Q 819 -75 525 192  Q 231 459 231 875  Q 231 1119 342 1320  Q 453 1522 633 1644  Q 813 1766 1038 1828  Q 1203 1872 1538 1913  Q 2219 1994 2541 2106  Q 2544 2222 2544 2253  Q 2544 2597 2384 2738  Q 2169 2928 1744 2928  Q 1347 2928 1158 2789  Q 969 2650 878 2297  L 328 2372  Q 403 2725 575 2942  Q 747 3159 1072 3276  Q 1397 3394 1825 3394  Q 2250 3394 2515 3294  Q 2781 3194 2906 3042  Q 3031 2891 3081 2659  Q 3109 2516 3109 2141  L 3109 1391  Q 3109 606 3145 398  Q 3181 191 3288 0  L 2700 0  Q 2613 175 2588 409  z M 2541 1666  Q 2234 1541 1622 1453  Q 1275 1403 1131 1340  Q 988 1278 909 1158  Q 831 1038 831 891  Q 831 666 1001 516  Q 1172 366 1500 366  Q 1825 366 2078 508  Q 2331 650 2450 897  Q 2541 1088 2541 1459  L 2541 1666  z " transform="scale(0.015625)" />
       <path id="ArialMT-63" d="M 2588 1216  L 3141 1144  Q 3050 572 2676 248  Q 2303 -75 1759 -75  Q 1078 -75 664 370  Q 250 816 250 1647  Q 250 2184 428 2587  Q 606 2991 970 3192  Q 1334 3394 1763 3394  Q 2303 3394 2647 3120  Q 2991 2847 3088 2344  L 2541 2259  Q 2463 2594 2264 2762  Q 2066 2931 1784 2931  Q 1359 2931 1093 2626  Q 828 2322 828 1663  Q 828 994 1084 691  Q 1341 388 1753 388  Q 2084 388 2306 591  Q 2528 794 2588 1216  z " transform="scale(0.015625)" />
       <path id="ArialMT-69" d="M 425 3934  L 425 4581  L 988 4581  L 988 3934  L 425 3934  z M 425 0  L 425 3319  L 988 3319  L 988 0  L 425 0  z " transform="scale(0.015625)" />
       <path id="ArialMT-76" d="M 1344 0  L 81 3319  L 675 3319  L 1388 1331  Q 1503 1009 1600 663  Q 1675 925 1809 1294  L 2547 3319  L 3125 3319  L 1869 0  L 1344 0  z " transform="scale(0.015625)" />
      </defs>
      <use xlink:href="#ArialMT-49" />
      <use xlink:href="#ArialMT-6e" x="27.783203" />
      <use xlink:href="#ArialMT-74" x="83.398438" />
      <use xlink:href="#ArialMT-65" x="111.181641" />
      <use xlink:href="#ArialMT-72" x="166.796875" />
      <use xlink:href="#ArialMT-61" x="200.097656" />
      <use xlink:href="#ArialMT-63" x="255.712891" />
      <use xlink:href="#ArialMT-74" x="305.712891" />
      <use xlink:href="#ArialMT-69" x="333.496094" />
      <use xlink:href="#ArialMT-76" x="355.712891" />
      <use xlink:href="#ArialMT-65" x="405.712891" />
     </g>
    </g>
   </g>
  </g>
 </g>
</svg></g>
</g>
</svg>